<?xml version="1.0" encoding="utf-8"?>
<!-- Generator: Adobe Illustrator 19.2.0, SVG Export Plug-In . SVG Version: 6.00 Build 0)  -->
<svg version="1.1" id="Layer_1" xmlns="http://www.w3.org/2000/svg" xmlns:xlink="http://www.w3.org/1999/xlink" x="0px" y="0px"
	 viewBox="0 0 189 238" style="enable-background:new 0 0 189 238;" xml:space="preserve">
<style type="text/css">
	.st0{fill:none;stroke:#000000;stroke-width:3;stroke-linejoin:round;}
	.st1{fill:none;stroke:#000000;stroke-width:3;stroke-linecap:square;}
</style>
<g>
	<g>
		<g id="logo_letters">
			<path id="Fill-2" d="M17.3,214.6c0-1.9-1.7-3.6-3.6-3.6H8.2c-0.3,0-0.5,0.2-0.5,0.5v19.9c0,0.4,0.2,0.5,0.5,0.5h5.5
				c2,0,3.6-1.5,3.6-3.5V214.6L17.3,214.6z M13.7,237.2H2.5c-0.4,0-0.5-0.2-0.5-0.5v-30.4c0-0.3,0.1-0.5,0.5-0.5h11.2
				c5.6,0,9.2,3.6,9.2,9.3v12.8C22.9,233.6,19.3,237.2,13.7,237.2L13.7,237.2z"/>
			<path id="Fill-3" d="M45.6,237.2H28.1c-0.4,0-0.5-0.2-0.5-0.5v-30.4c0-0.3,0.1-0.5,0.5-0.5h17.5c0.3,0,0.5,0.2,0.5,0.5v4.3
				c0,0.3-0.1,0.4-0.5,0.4H33.8c-0.3,0-0.5,0.2-0.5,0.5v6.7c0,0.3,0.2,0.5,0.5,0.5h9.7c0.4,0,0.5,0.1,0.5,0.5v4.2
				c0,0.3-0.1,0.5-0.5,0.5h-9.7c-0.3,0-0.5,0.1-0.5,0.5v7c0,0.4,0.2,0.5,0.5,0.5h11.8c0.3,0,0.5,0.2,0.5,0.5v4.3
				C46.1,237,46,237.2,45.6,237.2"/>
			<path id="Fill-4" d="M84.2,236.8c0,0.2-0.2,0.4-0.5,0.4h-5.8l-0.4-0.3l-7.8-12.5c-0.2-0.2-0.3-0.3-0.4-0.3
				c-0.2,0-0.4,0.1-0.5,0.2l-2,2.7v9.7c0,0.3-0.1,0.5-0.5,0.5h-4.7c-0.4,0-0.5-0.2-0.5-0.5v-30.4c0-0.3,0.1-0.5,0.5-0.5h4.7
				c0.3,0,0.5,0.2,0.5,0.5v11.1c0,0.3,0.2,0.6,0.5,0.6c0.1,0,0.3-0.1,0.4-0.3l8.9-11.7l0.4-0.2h5.7c0.3,0,0.5,0.2,0.5,0.4
				c0,0.1,0,0.3-0.1,0.4l-9.7,12c0,0.1-0.1,0.2-0.1,0.2c0,0.1,0.1,0.2,0.1,0.3l10.7,17.3C84.2,236.5,84.2,236.7,84.2,236.8"/>
			<path id="Fill-5" d="M102.3,214.6c0-1.9-1.6-3.6-3.6-3.6h-5.5c-0.3,0-0.5,0.2-0.5,0.5v6.7c0,0.3,0.2,0.5,0.5,0.5h5.5
				c2,0,3.6-1.6,3.6-3.6V214.6L102.3,214.6z M108.5,236.8c0,0.2-0.1,0.4-0.5,0.4h-5.1c-0.2,0-0.3-0.1-0.5-0.4l-4.3-12.6l-0.4-0.3
				h-4.5c-0.3,0-0.5,0.1-0.5,0.5v12.3c0,0.3-0.1,0.5-0.5,0.5h-4.7c-0.3,0-0.5-0.2-0.5-0.5v-30.4c0-0.3,0.2-0.5,0.5-0.5h11.2
				c5.7,0,9.3,3.6,9.3,9.3v0.5c0,2.3-1.2,4.2-2.2,5.3c-0.9,0.8-2.1,1.4-2.1,1.9l0,0l4.8,13.7C108.5,236.6,108.5,236.7,108.5,236.8
				L108.5,236.8z"/>
			<path id="Fill-6" d="M127.8,214.1c0-2-1.6-3.5-3.6-3.5h-2.4c-2,0-3.6,1.5-3.6,3.5v14.8c0,2,1.6,3.5,3.6,3.5h2.4
				c2,0,3.6-1.5,3.6-3.5V214.1L127.8,214.1z M124.2,237.7h-2.4c-5.6,0-9.2-3.6-9.2-8.8v-14.8c0-5.2,3.6-8.8,9.2-8.8h2.4
				c5.6,0,9.3,3.6,9.3,8.8v14.8C133.5,234.1,129.8,237.7,124.2,237.7L124.2,237.7z"/>
			<path id="Fill-7" d="M154,214.1c0-2-1.5-3.5-3.5-3.5H148c-2,0-3.6,1.5-3.6,3.5v14.8c0,2,1.6,3.5,3.6,3.5h2.5c2,0,3.5-1.5,3.5-3.5
				V214.1L154,214.1z M150.5,237.7H148c-5.6,0-9.2-3.6-9.2-8.8v-14.8c0-5.2,3.7-8.8,9.2-8.8h2.5c5.5,0,9.2,3.6,9.2,8.8v14.8
				C159.7,234.1,156,237.7,150.5,237.7L150.5,237.7z"/>
			<path id="Fill-8" d="M188.5,236.8c0,0.2-0.2,0.4-0.6,0.4h-5.8l-0.4-0.3l-7.8-12.5c-0.1-0.2-0.3-0.3-0.4-0.3
				c-0.2,0-0.3,0.1-0.4,0.2l-2,2.7v9.7c0,0.3-0.2,0.5-0.5,0.5h-4.8c-0.3,0-0.4-0.2-0.4-0.5v-30.4c0-0.3,0.1-0.5,0.4-0.5h4.8
				c0.3,0,0.5,0.2,0.5,0.5v11.1c0,0.3,0.2,0.6,0.4,0.6s0.3-0.1,0.5-0.3l8.8-11.7l0.4-0.2h5.7c0.4,0,0.6,0.2,0.6,0.4
				c0,0.1-0.1,0.3-0.2,0.4l-9.6,12c-0.1,0.1-0.1,0.2-0.1,0.2c0,0.1,0,0.2,0.1,0.3l10.7,17.3C188.4,236.5,188.5,236.7,188.5,236.8"/>
		</g>
		<g>
			<path id="logo_path1" class="st0" d="M63.5,2.2l122.4,122.4v61h-61.8L2.6,64.2v-62H63.5z"/>
			<path id="logo_path2" class="st0" d="M2.6,124.2L124.7,1.8h61.1v61.9L63.7,185.8H2.4L2.6,124.2L2.6,124.2z"/>
			<path id="logo_line" class="st1" d="M2.5,63.5v61"/>
		</g>
	</g>
</g>
</svg>
