<?xml version="1.0" encoding="UTF-8" standalone="no"?><!DOCTYPE svg PUBLIC "-//W3C//DTD SVG 1.1//EN" "http://www.w3.org/Graphics/SVG/1.1/DTD/svg11.dtd"><svg width="100%" height="100%" viewBox="0 0 1654 1171" version="1.1" xmlns="http://www.w3.org/2000/svg" xmlns:xlink="http://www.w3.org/1999/xlink" xml:space="preserve" xmlns:serif="http://www.serif.com/" style="fill-rule:evenodd;clip-rule:evenodd;stroke-linejoin:round;stroke-miterlimit:1.41421;"><g id="Laag-1" serif:id="Laag 1"><path d="M1543.7,1170.56l-1433.86,0c-60.413,0 -109.842,-49.429 -109.842,-109.841l0,-949.609c0,-60.412 49.429,-109.841 109.842,-109.841l1433.86,0c60.412,0 109.842,49.429 109.842,109.841l0,949.609c0,60.412 -49.43,109.841 -109.842,109.841" style="fill:#231f20;fill-rule:nonzero;"/><path d="M197.274,642.251c6.7,37.958 31.808,56.633 65.404,50.708c35.462,-6.254 50.4,-30.712 43.275,-71.146c-6.921,-39.2 -28.254,-54.687 -64.954,-48.212c-33.617,5.929 -50.075,32.558 -43.725,68.65m119.458,-101.246c43.6,10.896 68.525,32.192 75.875,73.862c11.304,64.088 -32.092,119.842 -116.108,134.663c-14.309,2.517 -26.959,3.471 -39.338,2.454c-6.596,6.275 -10.15,15.267 -8.608,23.975c1.971,11.204 9.437,20.784 41.796,15.079l50.4,-8.891c74.658,-13.15 129.587,18.208 139.25,72.954c11.733,66.579 -38.996,117.225 -149.134,136.629c-120.695,21.292 -160.583,-12.075 -172.212,-78.046l79,-13.925c5.5,31.121 21.6,42.384 84.442,31.296c60.979,-10.754 74.191,-30.383 70.029,-54.029c-3.954,-22.388 -23.159,-33.125 -58.009,-27l-48.537,8.567c-69.054,12.179 -102.954,-12.625 -109.083,-47.48c-4.184,-23.645 6.7,-49.283 27.708,-68.404c-45.004,-15.162 -67.575,-41.329 -75.042,-83.629c-12.833,-72.792 36.8,-129.667 119.538,-144.242c76.237,-11.529 111.416,-37.641 147.283,-67.046l33.738,63.963c-22.613,13.617 -53.184,22.225 -92.988,29.25" style="fill:#fff;fill-rule:nonzero;"/><path d="M655.188,586.532c-8.788,-49.771 -31.279,-79.162 -73.604,-71.696c-34.829,6.134 -52.45,33.617 -45.834,96.604l120.088,-21.175l-0.65,-3.733Zm96.275,43.967l-205.946,36.312c17.413,62.379 50.563,75.779 92.883,68.329c27.992,-4.933 50.096,-17.825 75.209,-42.791l45.487,43.3c-27.729,31.846 -65.525,57.746 -117.162,66.858c-105.775,18.633 -173.429,-41.287 -191.638,-144.567c-17.558,-99.541 22.346,-186.125 118.784,-203.133c93.333,-16.462 159.67,35.988 178.22,141.146c1.971,11.204 3.13,25.108 4.163,34.546" style="fill:#fff;fill-rule:nonzero;"/><path d="M1076.97,467.888l42.341,240.171l-88.358,15.566l-39.704,-225.216c-6.7,-37.971 -22.246,-46.121 -44.634,-42.171c-25.516,4.496 -42.466,24.792 -55.354,57.242l40.146,227.708l-88.358,15.587l-58.134,-329.758l76.546,-13.496l14.171,40.463c20.946,-37.704 49.383,-61.942 91.688,-69.4c57.866,-10.2 98.687,21.079 109.65,83.304" style="fill:#fff;fill-rule:nonzero;"/><path d="M1316.47,683.56c-68.546,11.45 -110.304,-21.6 -123.25,-95.038l-28.966,-164.254l-49.142,8.667l-10.983,-62.205l49.162,-8.666l-12.729,-72.192l86.496,-26.158l14.591,82.771l75.896,-13.388l2.275,63.738l-67.208,11.854l28.642,162.396c5.704,32.354 18.47,42.933 40.879,38.995c11.812,-2.091 23,-7.916 35.237,-18.433l40.475,51.275c-21.291,21.071 -52.121,35.483 -81.375,40.638" style="fill:#fff;fill-rule:nonzero;"/><path d="M1505.05,353.689c5.154,29.242 -14.209,57.667 -44.067,62.933c-29.254,5.167 -57.183,-14.937 -62.338,-44.179c-5.033,-28.608 14.33,-57.037 43.58,-62.204c29.858,-5.267 57.791,14.838 62.825,43.45" style="fill:#fff;fill-rule:nonzero;"/><path d="M1540.06,578.325c5.155,29.229 -14.229,57.667 -44.087,62.925c-29.25,5.175 -57.163,-14.938 -62.317,-44.171c-5.054,-28.641 14.309,-57.037 43.563,-62.212c29.858,-5.259 57.787,14.816 62.841,43.458" style="fill:#fff;fill-rule:nonzero;"/></g></svg>