<svg id="Laag_1" data-name="Laag 1" xmlns="http://www.w3.org/2000/svg" viewBox="0 0 423.25 242.01"><defs><style>.cls-1{fill:#2b2620;}</style></defs><title>DMG beeldmerk en woordmerk</title><path class="cls-1" d="M184.72,94.12a17,17,0,0,0,16.89-16.94,17,17,0,0,0-16.89-17H157.14l9.4,19.33-7.1,14.59h5.47L179.2,64.71h5.88a1.63,1.63,0,0,1,.36.05l-14.3,29.36Zm-5.9-4.51,11.32-23.32A13,13,0,0,1,194.46,71a12.48,12.48,0,0,1,1.68,6.23,12.76,12.76,0,0,1-3.36,8.57,10.35,10.35,0,0,1-8.06,3.86Zm-14-24.9h8.92l-4.46,9.21Zm60.92,20.2a5.73,5.73,0,0,1-2.32,3.69A7.61,7.61,0,0,1,218.78,90a7.38,7.38,0,0,1-5.23-2c-1.41-1.32-2.16-3.33-2.25-6h20.33a9.41,9.41,0,0,0,.15-1.1c0-.39.05-.8.05-1.25a13.54,13.54,0,0,0-.39-3.29,12.82,12.82,0,0,0-1.15-3A11.33,11.33,0,0,0,225.81,69,13.83,13.83,0,0,0,219,67.35a15.56,15.56,0,0,0-3.62.41A12.06,12.06,0,0,0,212.25,69a11.63,11.63,0,0,0-4.65,4.7,14.79,14.79,0,0,0-1.68,7.2,17.21,17.21,0,0,0,.43,3.88,14.14,14.14,0,0,0,1.25,3.36,11.52,11.52,0,0,0,4.63,4.7A13.78,13.78,0,0,0,219,94.45a15.19,15.19,0,0,0,3.16-.31,13.23,13.23,0,0,0,2.83-.93,11.16,11.16,0,0,0,4.37-3.36,11.5,11.5,0,0,0,2.21-4.94ZM213.65,73.68a7.68,7.68,0,0,1,5.37-2,8.81,8.81,0,0,1,1.94.21,10,10,0,0,1,1.8.6,6.37,6.37,0,0,1,2.66,2.61,8.15,8.15,0,0,1,.89,4.35h-15A8,8,0,0,1,213.65,73.68Zm43,10.94A8,8,0,0,1,257,87a6.61,6.61,0,0,1-2.52,5.37,10.34,10.34,0,0,1-6.78,2.06,12.87,12.87,0,0,1-8-2.3A9.49,9.49,0,0,1,236,85.72h5.32a5,5,0,0,0,1.92,3.5,6.84,6.84,0,0,0,4.42,1.35,4.43,4.43,0,0,0,3.09-1,3.41,3.41,0,0,0,1.13-2.62,2.85,2.85,0,0,0-.87-2.2,6.12,6.12,0,0,0-2.15-1.3c-.42-.13-.92-.27-1.52-.43s-1.27-.32-2-.48a41.45,41.45,0,0,1-4.68-1.34,7.09,7.09,0,0,1-3-2.21,4.35,4.35,0,0,1-1-1.75,8,8,0,0,1-.31-2.33,6.72,6.72,0,0,1,2.52-5.44,10.61,10.61,0,0,1,7-2.09,11.2,11.2,0,0,1,7.46,2.37,10.05,10.05,0,0,1,3.42,6.36h-5.18a5.6,5.6,0,0,0-1.84-3.48,5.89,5.89,0,0,0-4-1.32,4.69,4.69,0,0,0-3.19,1,3.35,3.35,0,0,0-1.13,2.66,2.64,2.64,0,0,0,.82,2,5.42,5.42,0,0,0,2.06,1.2c.39.13.87.28,1.47.44l2,.52a35.09,35.09,0,0,1,4.82,1.39,8.09,8.09,0,0,1,3.19,2.26A6.36,6.36,0,0,1,256.63,84.62Zm5.8-16.93h5.47V94.12h-5.47Zm.19-5.43a2.87,2.87,0,0,1-1-2.25,3,3,0,0,1,1-2.3,3.54,3.54,0,0,1,2.55-.91,3.6,3.6,0,0,1,2.56.91,3,3,0,0,1,1,2.3,2.83,2.83,0,0,1-1,2.25,3.71,3.71,0,0,1-2.56.87A3.65,3.65,0,0,1,262.62,62.26Zm31.86,43.18a11.1,11.1,0,0,0,4.34-4.49,13.84,13.84,0,0,0,1.51-6.54V67.69h-5.47v6.14a9.49,9.49,0,0,0-3.6-4.7,10.4,10.4,0,0,0-6.14-1.78,12.71,12.71,0,0,0-3.26.41,11.07,11.07,0,0,0-7.15,5.92,16,16,0,0,0-1.53,7.2,18.51,18.51,0,0,0,.38,3.88,14,14,0,0,0,1.15,3.36,11.05,11.05,0,0,0,4.25,4.7,11.67,11.67,0,0,0,6.16,1.63,10.46,10.46,0,0,0,6.14-1.77,9.49,9.49,0,0,0,3.6-4.7v6.43a7.72,7.72,0,0,1-2.11,5.85,7.48,7.48,0,0,1-5.37,2,8.46,8.46,0,0,1-4.9-1.32,6.45,6.45,0,0,1-2.59-3.67h-5.42a11.42,11.42,0,0,0,4.29,7.15,14.37,14.37,0,0,0,9,2.64,15.57,15.57,0,0,0,3.65-.41A11.52,11.52,0,0,0,294.48,105.44Zm.12-22.12a8.73,8.73,0,0,1-.8,2.16,7.68,7.68,0,0,1-2.87,3,8,8,0,0,1-4.13,1.08A7.63,7.63,0,0,1,281,87.28a9,9,0,0,1-2.18-6.4A9,9,0,0,1,281,74.47a7.62,7.62,0,0,1,5.83-2.32,9,9,0,0,1,2.18.26,7.9,7.9,0,0,1,1.95.79,7.82,7.82,0,0,1,2.87,3.1,9.53,9.53,0,0,1,1.06,4.58A11.2,11.2,0,0,1,294.6,83.32Zm29.95-9.52a6.52,6.52,0,0,0-5-1.94A6.8,6.8,0,0,0,314.34,74c-1.32,1.39-2,3.43-2,6.11V94.12H306.9V67.69h5.47v5.8a8.85,8.85,0,0,1,3.55-4.61,10.32,10.32,0,0,1,5.75-1.63,9.65,9.65,0,0,1,7.39,3c1.86,2,2.78,4.81,2.78,8.49v15.4h-5.46V79.29A7.71,7.71,0,0,0,324.55,73.8ZM192.06,105.25h5.47v33.91h-5.47V116.47l-11,22.69h-5.47l-11-22.69v22.69h-5.46V105.25h5.46l7.92,16.31,7.94-16.31h5.44l-10.65,21.87,3.12,6.43ZM223,112.73h5.52v26.43H223v-5.75a8.51,8.51,0,0,1-3.5,4.53,10.52,10.52,0,0,1-5.81,1.61,9.59,9.59,0,0,1-7.38-3q-2.79-3-2.79-8.49V112.73H209v14.78a7.79,7.79,0,0,0,1.83,5.54,6.5,6.5,0,0,0,5,1.94,6.79,6.79,0,0,0,5.23-2.11,8.7,8.7,0,0,0,2-6.14Zm31.61,16.94a7.66,7.66,0,0,1,.34,2.39,6.63,6.63,0,0,1-2.52,5.38,10.42,10.42,0,0,1-6.79,2.06,13,13,0,0,1-8-2.3,9.51,9.51,0,0,1-3.67-6.43h5.33a5,5,0,0,0,1.92,3.5,6.82,6.82,0,0,0,4.41,1.34,4.43,4.43,0,0,0,3.1-1,3.39,3.39,0,0,0,1.12-2.61,2.91,2.91,0,0,0-.86-2.21,6.4,6.4,0,0,0-2.16-1.29c-.42-.13-.92-.28-1.51-.44s-1.27-.31-2-.48a37.62,37.62,0,0,1-4.68-1.34,7,7,0,0,1-3-2.2,4.48,4.48,0,0,1-1-1.76,8.25,8.25,0,0,1-.31-2.32,6.74,6.74,0,0,1,2.52-5.45,10.64,10.64,0,0,1,7-2.08,11.18,11.18,0,0,1,7.46,2.37,10.06,10.06,0,0,1,3.43,6.36h-5.18a5.62,5.62,0,0,0-1.85-3.48,5.87,5.87,0,0,0-4-1.32,4.72,4.72,0,0,0-3.19,1,3.34,3.34,0,0,0-1.13,2.66,2.64,2.64,0,0,0,.81,2,5.82,5.82,0,0,0,2.07,1.2c.38.13.87.27,1.46.43l2,.53a35.09,35.09,0,0,1,4.82,1.39,8.09,8.09,0,0,1,3.19,2.25A6,6,0,0,1,254.61,129.67Zm28.83-11.28A11.4,11.4,0,0,0,279,114a13.83,13.83,0,0,0-6.79-1.6,15.57,15.57,0,0,0-3.62.4A12.08,12.08,0,0,0,265.4,114a11.51,11.51,0,0,0-4.65,4.7,14.72,14.72,0,0,0-1.68,7.19,17.3,17.3,0,0,0,.43,3.89,14.47,14.47,0,0,0,1.25,3.36,11.64,11.64,0,0,0,4.63,4.7,13.78,13.78,0,0,0,6.79,1.63,16.08,16.08,0,0,0,3.17-.31,13.06,13.06,0,0,0,2.83-.94,11.19,11.19,0,0,0,4.36-3.36,11.39,11.39,0,0,0,2.21-4.94h-5.86a5.72,5.72,0,0,1-2.32,3.7,7.68,7.68,0,0,1-4.63,1.39,7.39,7.39,0,0,1-5.23-2q-2.11-2-2.25-6h20.34c.06-.35.11-.72.14-1.11s.05-.8.05-1.24a13.48,13.48,0,0,0-.39-3.29A12.73,12.73,0,0,0,283.44,118.39Zm-19,6.14a8,8,0,0,1,2.35-5.8,7.69,7.69,0,0,1,5.37-2,8.24,8.24,0,0,1,1.94.22,9.06,9.06,0,0,1,1.8.6,6.25,6.25,0,0,1,2.66,2.61,8.12,8.12,0,0,1,.89,4.34Zm44.66-11.8h5.51v26.43h-5.51v-5.75a8.53,8.53,0,0,1-3.51,4.53,10.46,10.46,0,0,1-5.8,1.61,9.63,9.63,0,0,1-7.39-3q-2.78-3-2.78-8.49V112.73h5.47v14.78a7.84,7.84,0,0,0,1.82,5.54,6.54,6.54,0,0,0,5,1.94,6.8,6.8,0,0,0,5.23-2.11,8.7,8.7,0,0,0,2-6.14Zm55.45,11v15.4h-5.47V124.34a7.68,7.68,0,0,0-1.73-5.35,6.1,6.1,0,0,0-4.75-1.89,6.61,6.61,0,0,0-5.1,2q-1.9,2-1.9,6v14h-5.47V124.34a7.68,7.68,0,0,0-1.72-5.35,6.13,6.13,0,0,0-4.75-1.89,6.62,6.62,0,0,0-5.11,2q-1.9,2-1.9,6v14h-5.47V112.73h5.47v5.52a8.36,8.36,0,0,1,3.36-4.41,9.83,9.83,0,0,1,5.52-1.54,10,10,0,0,1,5.73,1.63,9.33,9.33,0,0,1,3.53,4.7,9.48,9.48,0,0,1,3.69-4.65,10.19,10.19,0,0,1,5.76-1.68,9.83,9.83,0,0,1,7.5,3Q364.56,118.26,364.56,123.76Zm-176.15,43,7.2,14.78h-5.47l-7.2-14.78H176.8l4.47,9.16.38.77h0l2.4,4.89h-9.5a17,17,0,0,1-8.73-2.2,15,15,0,0,1-5.85-6.14,17.74,17.74,0,0,1-1.54-4,19.13,19.13,0,0,1-.53-4.61,18.39,18.39,0,0,1,2.07-8.87,15.13,15.13,0,0,1,5.85-6,16.14,16.14,0,0,1,4-1.6,18.76,18.76,0,0,1,4.63-.56,16.5,16.5,0,0,1,10.07,3,13.93,13.93,0,0,1,5.33,8.11h-5.76a9.14,9.14,0,0,0-3.62-4.37,10.72,10.72,0,0,0-6-1.63,11,11,0,0,0-5.69,1.49,10,10,0,0,0-3.91,4.22,11.56,11.56,0,0,0-1.08,2.88,14.87,14.87,0,0,0-.35,3.4,13.5,13.5,0,0,0,1.43,6.53,10.06,10.06,0,0,0,4.08,4.07,9.74,9.74,0,0,0,2.81,1.13,13.92,13.92,0,0,0,3.24.36h1.05l-4.94-9.93-2-4H193v4Zm34.25-6a11.37,11.37,0,0,0-4.48-4.38,13.72,13.72,0,0,0-6.79-1.61,15,15,0,0,0-3.62.41,12,12,0,0,0-3.14,1.22,11.53,11.53,0,0,0-4.66,4.7,14.78,14.78,0,0,0-1.67,7.2,16.66,16.66,0,0,0,.43,3.88,13.71,13.71,0,0,0,1.24,3.36,11.64,11.64,0,0,0,4.63,4.7,13.78,13.78,0,0,0,6.79,1.63,15.29,15.29,0,0,0,3.17-.31,13.06,13.06,0,0,0,2.83-.94,11.08,11.08,0,0,0,4.36-3.35,11.38,11.38,0,0,0,2.21-4.94h-5.85a5.78,5.78,0,0,1-2.33,3.69,7.59,7.59,0,0,1-4.63,1.39,7.35,7.35,0,0,1-5.23-2q-2.11-2-2.25-6H224c.06-.35.11-.72.14-1.1s0-.8,0-1.25a14.05,14.05,0,0,0-.38-3.29A12.76,12.76,0,0,0,222.66,160.76Zm-19,6.14a8,8,0,0,1,2.35-5.8,7.69,7.69,0,0,1,5.37-2,8.8,8.8,0,0,1,1.94.22,9.06,9.06,0,0,1,1.8.6,6.39,6.39,0,0,1,2.67,2.61,8.14,8.14,0,0,1,.88,4.34Zm48-9.25q2.78,3,2.78,8.49v15.4H249V166.71a7.74,7.74,0,0,0-1.82-5.49,6.54,6.54,0,0,0-5-1.94,6.84,6.84,0,0,0-5.23,2.08c-1.31,1.4-2,3.43-2,6.12v14.06h-5.46V155.1h5.46v5.81a9,9,0,0,1,3.55-4.61,10.38,10.38,0,0,1,5.76-1.63A9.63,9.63,0,0,1,251.64,157.65Zm19.81,19.14h2.64v4.75h-3.36c-2.81,0-5-.68-6.4-2s-2.19-3.62-2.19-6.79v-13h-3.79V155.1h3.79v-6.57h5.52v6.57H274v4.66h-6.38v13a4.45,4.45,0,0,0,.84,3.12A4,4,0,0,0,271.45,176.79ZM56.82,139.16,76.7,100.3l3.38-6.61,3.38,6.61,3.12,6.09L90,113l3.12,6.1,3.38,6.61,6.89,13.45H96.59l-3.51-6.85-3.5,6.85H82.82l6.88-13.45-3.12-6.1-10,19.55H69.82L83.2,113l-3.12-6.1-16.5,32.26ZM103,113l13.38,26.16h-6.76l-10-19.55L96.2,113l-3.12-6.1-3.38-6.6-3.12-6.1L83.2,87.59,86.58,81,90,87.59l3.12,6.1,3.38,6.61,3.12,6.09Zm6.5-12.7,19.88,38.86h-6.76l-16.5-32.26-3.38-6.6-3.12-6.1L96.2,87.59l-3.12-6.1-3.38-6.6,3.38-6.61L97.34,60h6.76L96.46,74.89,99.58,81l10.76-21h6.76L103,87.59l3.12,6.1L123.33,60h6.76Z"/></svg>