<?xml version="1.0" encoding="UTF-8" standalone="no"?><!DOCTYPE svg PUBLIC "-//W3C//DTD SVG 1.1//EN" "http://www.w3.org/Graphics/SVG/1.1/DTD/svg11.dtd"><svg width="100%" height="100%" viewBox="0 0 315 178" version="1.1" xmlns="http://www.w3.org/2000/svg" xmlns:xlink="http://www.w3.org/1999/xlink" xml:space="preserve" xmlns:serif="http://www.serif.com/" style="fill-rule:evenodd;clip-rule:evenodd;stroke-linejoin:round;stroke-miterlimit:1.41421;"><g id="basisversie-2" serif:id="basisversie 2"><path d="M48.084,174.049l9.16,0c0.419,-0.018 0.419,-0.229 0.419,-0.397l0.001,-27.527c-0.018,-0.418 -0.228,-0.418 -0.397,-0.418l-9.183,0c-0.168,0 -0.379,0 -0.397,0.398l0,27.547c0,0.168 0,0.379 0.397,0.397" style="fill:#231f20;fill-rule:nonzero;"/><path d="M215.55,165.602l-17.57,0l0,-11.449l17.57,0l0,11.449Zm8.447,-16.437c0,-3.255 -2.886,-3.452 -3.46,-3.458l-27.545,0c-3.254,0 -3.452,2.886 -3.457,3.458l0,21.418c0.005,0.579 0.205,3.466 3.457,3.466l27.545,0c3.257,0 3.455,-2.888 3.46,-3.461l0,-21.423Z" style="fill:#231f20;fill-rule:nonzero;"/><path d="M118.972,174.049l9.162,0c0.417,-0.018 0.417,-0.221 0.417,-0.397l0.001,-27.527c-0.019,-0.418 -0.229,-0.418 -0.397,-0.418l-9.183,0c-0.169,0 -0.38,0 -0.397,0.398l0,27.547c0,0.168 0,0.379 0.397,0.397" style="fill:#231f20;fill-rule:nonzero;"/><path d="M260.82,174.049l9.16,0c0.418,-0.018 0.418,-0.221 0.418,-0.397l0,-27.527c-0.018,-0.418 -0.226,-0.418 -0.396,-0.418l-9.182,0c-0.17,0 -0.381,0 -0.398,0.398l0,27.547c0,0.176 0,0.379 0.398,0.397" style="fill:#231f20;fill-rule:nonzero;"/><path d="M314.955,155.266l0,-9.141c-0.02,-0.418 -0.228,-0.418 -0.397,-0.418l-18.365,0c-3.255,0 -3.453,2.886 -3.459,3.458l0,14.907l-11.845,0c-0.17,0 -0.379,0 -0.397,0.398l0,9.16c0.018,0.419 0.227,0.419 0.397,0.419l18.359,0c0.578,-0.006 3.463,-0.204 3.463,-3.461l0,-14.903l11.848,0c0.168,0 0.376,-0.002 0.396,-0.419" style="fill:#231f20;fill-rule:nonzero;"/><path d="M176.308,149.172c-0.004,-0.579 -0.203,-3.465 -3.458,-3.465l-30.607,0c-0.169,0 -0.379,0 -0.397,0.398l0,9.16c0.018,0.42 0.228,0.42 0.397,0.42l24.088,0l0,8.386l-21.027,0c-3.254,0 -3.451,2.886 -3.458,3.458l0,18.344c0.018,0.418 0.228,0.418 0.397,0.418l9.182,0c0.179,0 0.381,0 0.399,-0.396l0,-11.846l21.026,0c3.255,0 3.454,-2.888 3.458,-3.461l0,-21.416Z" style="fill:#231f20;fill-rule:nonzero;"/><path d="M237.621,174.049l9.158,0c0.418,-0.018 0.418,-0.221 0.418,-0.397l0,-39.769c-0.017,-0.418 -0.226,-0.418 -0.396,-0.418l-9.18,0c-0.172,0 -0.383,0 -0.398,0.396l0,39.791c0,0.168 0,0.379 0.398,0.397" style="fill:#231f20;fill-rule:nonzero;"/><path d="M95.771,186.291l9.183,0c0.169,0 0.379,0 0.397,-0.396l-0.001,-18.36c-0.007,-0.578 -0.203,-3.464 -3.457,-3.464l-21.029,0l0,-8.386l24.09,0c0.168,0 0.378,0 0.396,-0.399l0,-9.161c-0.018,-0.418 -0.228,-0.418 -0.397,-0.418l-30.608,0c-3.254,0 -3.451,2.884 -3.459,3.464l0.001,21.411c0.007,0.579 0.204,3.467 3.459,3.467l21.027,0l0,11.824c0.018,0.418 0.22,0.418 0.397,0.418" style="fill:#231f20;fill-rule:nonzero;"/><path d="M0,170.583c0.006,0.579 0.204,3.466 3.457,3.466l30.607,0c0.17,0 0.38,0 0.397,-0.398l0.001,-9.161c-0.018,-0.419 -0.228,-0.419 -0.398,-0.419l-24.088,0l0,-8.386l21.028,0c3.254,0 3.451,-2.887 3.457,-3.458l0.001,-18.344c-0.018,-0.418 -0.228,-0.418 -0.398,-0.418l-9.182,0c-0.169,0 -0.379,0 -0.397,0.396l0,11.846l-21.028,0c-3.254,0 -3.451,2.886 -3.457,3.458l0,21.418Z" style="fill:#231f20;fill-rule:nonzero;"/><path d="M157.467,20.297c-20.139,0 -36.465,16.326 -36.465,36.465c0,20.139 16.326,36.464 36.465,36.464c20.138,0 36.464,-16.325 36.464,-36.464c0,-20.139 -16.326,-36.465 -36.464,-36.465m48.361,36.465c0,26.708 -21.653,48.361 -48.361,48.361c-26.709,0 -48.362,-21.653 -48.362,-48.361c0,-26.71 21.653,-48.362 48.362,-48.362c26.708,0 48.361,21.652 48.361,48.362" style="fill:#231f20;fill-rule:nonzero;"/><path d="M134.915,74.326c0.004,0.45 0.159,4.416 4.415,4.416l36.671,0c0.198,0 0.722,0 0.748,-0.749l0,-10.986c-0.026,-0.759 -0.55,-0.759 -0.748,-0.759l-28.59,0l0,-9.508l24.925,0c4.249,0 4.41,-3.967 4.413,-4.413l0,-20.371c-0.026,-0.763 -0.55,-0.763 -0.748,-0.763l-11.004,0c-0.196,0 -0.725,0 -0.749,0.748l0,12.303l-24.918,0c-4.256,0 -4.411,3.967 -4.415,4.414l0,25.668Z" style="fill:#231f20;fill-rule:nonzero;"/></g></svg>