<?xml version="1.0" encoding="UTF-8" standalone="no"?><!DOCTYPE svg PUBLIC "-//W3C//DTD SVG 1.1//EN" "http://www.w3.org/Graphics/SVG/1.1/DTD/svg11.dtd"><svg width="100%" height="100%" viewBox="0 0 596 341" version="1.1" xmlns="http://www.w3.org/2000/svg" xmlns:xlink="http://www.w3.org/1999/xlink" xml:space="preserve" xmlns:serif="http://www.serif.com/" style="fill-rule:evenodd;clip-rule:evenodd;stroke-linejoin:round;stroke-miterlimit:1.41421;"><g id="Laag-1" serif:id="Laag 1"><path d="M258.681,265.691l-6.689,25.581l4.73,0l1.404,-5.809l7.178,0l1.403,5.809l4.699,0l-6.689,-25.581l-6.036,0Zm3.034,4.992l2.642,10.963l-5.318,0l2.676,-10.963Zm-26.579,-4.992l-6.688,25.581l4.731,0l1.403,-5.809l7.178,0l1.403,5.809l4.698,0l-6.688,-25.581l-6.037,0Zm3.035,4.992l2.643,10.963l-5.319,0l2.676,-10.963Zm112.434,-4.861l0,25.45l15.139,0l0,-3.818l-10.766,0l0,-7.276l9.135,0l0,-3.785l-9.135,0l0,-6.754l10.766,0l0,-3.817l-15.139,0Zm-20.278,0l0,25.45l15.14,0l0,-3.818l-10.767,0l0,-7.276l9.135,0l0,-3.785l-9.135,0l0,-6.754l10.767,0l0,-3.817l-15.14,0Zm-21.355,0l0,3.817l6.07,0l4.469,-0.098l-10.865,18.729l0,3.002l16.543,0l0,-3.818l-6.722,0l-4.471,0.097l10.866,-18.727l0,-3.002l-15.89,0Zm-18.858,0l0,12.169l0.131,5.384l-9.397,-17.553l-4.634,0l0,25.45l4.145,0l0,-12.171l-0.132,-5.384l9.398,17.555l4.633,0l0,-25.45l-4.144,0Z" style="fill:#1d1d1b;fill-rule:nonzero;"/><path d="M247.796,242.709l0,-1.305c0,-8.81 -3.295,-12.072 -10.441,-12.072l-7.505,0l0,25.45l7.505,0c7.146,0 10.441,-3.264 10.441,-12.073m-13.573,8.254l0,-17.815l2.871,0c4.536,0 6.231,2.514 6.231,8.256l0,1.305c0,5.742 -1.695,8.254 -6.231,8.254l-2.871,0Zm19.331,-21.631l0,25.45l15.139,0l0,-3.819l-10.766,0l0,-7.275l9.135,0l0,-3.785l-9.135,0l0,-6.755l10.766,0l0,-3.816l-15.139,0Zm37.652,14.356c3.883,0.521 5.123,1.697 5.123,3.915l0,0.196c0,2.121 -1.566,3.59 -4.307,3.59l-0.293,0c-2.74,0 -4.404,-1.567 -4.404,-5.189l-4.373,0l0,0.326c0,5.841 3.099,8.679 8.94,8.679c5.677,0 8.908,-2.806 8.908,-7.57l0,-0.358c0,-4.47 -2.643,-6.461 -8.19,-7.211c-4.014,-0.554 -4.959,-1.729 -4.959,-3.818l0,-0.195c0,-1.991 1.565,-3.328 3.98,-3.328l0.294,0c3.035,0 4.273,1.697 4.273,5.513l4.373,0l0,-0.75c0,-5.742 -2.643,-8.58 -8.679,-8.58c-5.514,0 -8.712,2.871 -8.712,7.373l0,0.326c0,4.209 2.481,6.33 8.026,7.081m24.415,-10.54l6.07,0l0,-3.816l-16.51,0l0,3.816l6.069,0l0,21.634l4.371,0l0,-21.634Zm14.346,-3.947l-6.688,25.581l4.731,0l1.403,-5.809l7.179,0l1.403,5.809l4.697,0l-6.688,-25.581l-6.037,0Zm3.035,4.992l2.643,10.963l-5.318,0l2.675,-10.963Zm32.771,8.516l0,-1.305c0,-8.81 -3.295,-12.072 -10.44,-12.072l-7.504,0l0,25.45l7.504,0c7.145,0 10.44,-3.264 10.44,-12.073m-13.573,8.254l0,-17.815l2.872,0c4.535,0 6.232,2.514 6.232,8.256l0,1.305c0,5.742 -1.697,8.254 -6.232,8.254l-2.872,0Z" style="fill:#1d1d1b;fill-rule:nonzero;"/><path d="M451.047,166.407c-0.572,-2.09 -1.211,-4.194 -1.456,-6.335c-0.791,-6.875 -1.426,-13.768 -2.096,-20.658c-0.313,-3.224 -0.609,-6.452 -0.837,-9.684c-0.174,-2.505 -0.279,-5.018 -0.322,-7.529c-0.05,-2.923 -0.225,-20.314 -0.016,-26.065c0.194,-5.338 1.065,-10.649 1.577,-15.979c0.67,-6.963 1.249,-13.918 1.273,-20.938c0.017,-4.468 -3.069,-7.455 -6.742,-8.585c-2.573,-0.792 -5.28,-1.139 -7.924,-1.707c-0.879,-0.188 -0.998,0.291 -1.114,0.998c-0.818,4.964 -1.66,9.925 -2.523,14.882c-1.914,10.979 -4.691,21.805 -5.765,32.933c-0.398,4.122 -0.96,8.229 -1.379,12.35c-0.284,2.771 -0.439,5.554 -0.668,8.33c-0.093,1.124 -0.529,1.886 -1.831,2.038c-5.018,0.583 -8.585,3.287 -11.215,7.536c-4.642,7.505 -7.764,15.572 -9.391,24.23c-0.651,3.467 -1.203,6.955 -1.965,10.397c-0.536,2.424 -2.161,7.185 -3.164,7.19c-0.63,-0.183 -1.008,-1.972 -1.056,-2.453c-0.284,-2.897 -0.235,-5.206 -0.356,-8.112c-0.093,-2.235 0.527,-18.912 0.543,-19.25c0.168,-3.524 0.558,-9.061 0.383,-12.569c-0.08,-1.629 -0.15,-2.675 -1.004,-4.177c-0.513,-0.887 -1.994,-1.622 -2.992,-1.801c-3.195,-0.574 -8.443,-0.103 -11.758,3.426c-4.822,5.135 -7.356,10.225 -10.5,16.542c-1.333,2.678 -2.153,5.084 -3.654,7.676c-0.199,0.343 -0.716,0.858 -1.059,0.762c-0.343,-0.095 -0.332,-0.857 -0.302,-1.272c0.122,-1.626 0.296,-2.251 0.5,-3.87c0.291,-2.288 0.526,-2.731 0.96,-4.994c0.817,-4.26 1.892,-8.474 2.606,-12.75c0.548,-3.272 0.644,-6.616 1.062,-9.914c0.197,-1.572 -0.149,-2.909 -1.36,-3.834c-1.833,-1.402 -3.742,-2.723 -5.714,-3.922c-1.561,-0.949 -2.46,-0.518 -3.161,1.184c-0.567,1.381 -1.082,2.793 -1.761,4.118c-1.766,3.444 -6.711,15.281 -10.481,29.056c-0.746,3.543 -1.338,5.891 -2.361,8.894c-1.203,3.533 -2.707,6.985 -4.345,10.342c-1.577,3.233 -3.406,6.356 -5.318,9.405c-0.492,0.786 -1.93,1.722 -2.551,1.503c-0.851,-0.299 -1.702,-1.558 -1.91,-2.542c-0.619,-2.908 -1.213,-5.876 -1.28,-8.833c-0.099,-4.337 0.207,-8.688 0.474,-13.025c0.09,-1.471 0.811,-2.711 2.408,-3.227c1.288,-0.416 2.59,-0.849 3.798,-1.451c1.316,-0.655 2.74,-1.251 3.728,-2.332c4.745,-6.123 4.291,-9.55 4.466,-12.522c0.175,-2.972 -0.128,-6.746 -1.925,-9.866c-1.733,-3.011 -3.889,-4.271 -7.235,-3.334c-2.542,0.714 -4.986,1.784 -7.47,2.709c-2.943,1.096 -5.158,3.195 -6.62,5.817c-1.739,3.123 -3.052,6.495 -4.425,9.811c-1.85,4.464 -3.283,9.032 -4.006,13.862c-1.025,6.854 -1.457,13.632 0.222,20.449c1.48,6.012 6.459,11.817 13.039,12.438c2.333,0.22 4.776,0.029 7.08,-0.424c2.703,-0.531 5.582,-1.135 7.133,-3.852c1.709,-2.996 3.306,-6.058 4.926,-9.105c0.438,-0.82 0.782,-1.688 1.355,-2.943c0.924,2.536 1.514,4.647 2.467,6.579c0.53,1.073 1.502,2.221 2.559,2.684c2.782,1.22 5.834,1.454 8.81,1c1.232,-0.188 2.681,-0.978 3.426,-1.955c2.448,-3.208 4.153,-6.776 4.877,-10.863c0.649,-3.657 1.71,-7.26 2.836,-10.808c2.738,-8.613 5.744,-13.958 8.662,-18.858c0.92,-1.544 1.864,-2.934 3.483,-4.689c0.864,-0.861 1.992,-1.472 2.834,-1.263c1.312,0.325 -0.541,4.581 -1.117,5.887c-1.122,2.554 -2.501,5.009 -3.446,7.624c-3.135,8.675 -5.459,17.536 -5.239,26.867c0.052,2.227 0.187,4.476 0.563,6.665c0.315,1.836 1.025,3.608 1.592,5.399c0.14,0.444 0.346,0.892 0.622,1.262c1.269,1.702 2.88,2.92 5.062,3.096c2.232,0.18 4.479,0.428 6.706,0.336c3.127,-0.129 5.653,-2.518 6.633,-5.527c0.917,-2.816 2.094,-5.548 3.28,-8.636c0.916,0.859 1.43,1.575 2.135,2.175c0.721,0.614 1.851,1.527 2.687,1.813c4.607,1.572 9.53,0.092 12.289,-4.85c1.471,-2.636 2.459,-5.582 3.369,-8.48c1.099,-3.493 1.878,-7.086 2.808,-10.633c0.152,-0.574 0.369,-1.131 0.555,-1.697c0.173,-0.016 0.347,-0.032 0.519,-0.049c0.224,1.143 0.531,2.276 0.655,3.43c0.497,4.66 0.876,9.334 1.415,13.989c0.721,6.225 1.823,12.387 3.93,18.311c1.253,3.519 2.581,7.022 4.093,10.436c1.515,3.421 3.906,6.203 7.056,8.286c2.352,1.556 4.87,2.353 7.734,1.873c2.624,-0.44 3.188,-1.15 3.111,-3.795c-0.074,-2.5 -0.24,-5.034 0.073,-7.498c0.39,-3.085 1.115,-6.143 1.905,-9.16c0.673,-2.574 0.17,-5.015 -0.458,-7.441c-0.916,-3.534 -2.043,-7.012 -3.006,-10.534m-120.516,-26.986c0.573,-2.723 1.207,-5.449 2.07,-8.092c0.836,-2.564 1.859,-5.087 3.028,-7.52c0.872,-1.813 1.493,-1.653 2.58,0.087c1.069,1.711 1.227,3.42 1.22,4.945c-0.052,5.007 -1.268,8.968 -5.114,11.732c-0.386,0.278 -1.245,0.73 -1.683,0.861c-1.182,0.248 -2.563,0.447 -2.563,0.447c0,0 0.316,-1.772 0.462,-2.46m90.414,-10.249c-1.049,4.291 -2.222,8.551 -3.389,12.813c-2.097,7.663 -4.196,15.325 -6.37,22.966c-0.208,0.731 -0.786,1.965 -1.429,1.965c-0.67,0 -1.095,-1.332 -1.292,-2.574c-0.796,-5.181 0.992,-12.942 2.502,-18.593c1.756,-6.567 2.754,-8.724 5.129,-15.002c1.171,-2.746 3.291,-4.56 4.515,-4.091c0.391,0.149 0.531,1.711 0.334,2.516" style="fill:#1d1d1b;fill-rule:nonzero;"/><path d="M333.953,107.642c-0.01,-0.01 -0.018,-0.02 -0.028,-0.029c2.927,-0.819 5.856,-1.638 8.785,-2.456l-0.073,-0.08c-2.654,0.743 -9.131,1.884 -9.23,1.779c0.372,-0.294 0.758,-0.568 1.111,-0.88c1.098,-0.971 1.033,-1.257 -0.245,-2.02c-0.208,-0.125 -0.376,-0.315 -0.621,-0.524c1.658,-1.929 4.236,-1.907 6.133,-3.13c5.202,-0.839 12.885,-2.592 14.629,-3.31c0.378,-0.155 0.637,-0.595 0.951,-0.903c-0.385,-0.182 -0.759,-0.49 -1.155,-0.523c-2.598,-0.219 -22.49,3.642 -24.791,4.648c-0.34,0.048 -0.681,0.097 -1.02,0.145c-0.99,0.101 -0.885,-1.017 -0.065,-1.185c7.526,-2.162 15.052,-3.471 22.579,-5.633c-1.531,-0.337 -2.95,-0.277 -4.362,-0.35c-2.506,-0.13 -5.007,-0.458 -7.513,-0.495c-9.111,-0.132 -18.229,-0.363 -27.22,1.641c-2.766,0.616 -3.257,0.215 -3.257,-2.681c0,-5.714 -0.027,-11.436 0.235,-17.142c0.159,-3.45 0.743,-6.872 2.565,-9.988c0.649,-1.109 0.947,-2.563 0.975,-3.869c0.089,-4.05 -4.763,-7.628 -8.437,-6.966c-1.924,0.347 -3.863,0.655 -5.753,1.144c-2.055,0.53 -3.356,2.59 -3.059,4.688c0.275,1.935 -0.054,3.679 -0.799,5.526c-1.754,4.347 -3.384,8.76 -4.754,13.241c-2.547,8.324 -4.93,17.436 -7.367,25.793c-1.167,4 -2.75,8.5 -4.044,11.513c-2.762,6.434 -6.395,12.46 -9.635,18.668c-1.29,2.471 -2.678,4.892 -3.93,7.383c-0.214,0.425 -1.645,2.64 -2.047,3.574c-0.086,-0.075 -0.183,-0.127 -0.278,-0.176c-4.389,-2.295 -8.758,-6.399 -5.106,-13.19c1.31,-2.436 2.652,-4.613 5.762,-5.25c1.411,-0.288 3.619,-1.203 4.803,-2.199c1.691,-1.424 1.531,-3.602 0.692,-5.806c-0.883,-2.32 -2.668,-3.453 -5.087,-3.835c-2.185,-0.344 -9.184,0.089 -10.082,-0.016c-1.25,-0.146 -2.266,-0.024 -2.986,1.166c-1.126,1.857 -2.421,3.617 -3.443,5.526c-0.812,1.514 -1.729,2.374 -3.591,2.354c-2.366,0.374 -4.76,0.421 -6.587,0.616c-1.753,0.189 -3.513,0.335 -5.271,0.478c-0.991,0.079 -1.639,-0.336 -2.069,-1.287c-1.708,-3.779 -4.77,-5.641 -8.817,-5.938c-2.247,-0.165 -4.296,-1.512 -6.707,-0.834c-1.959,0.551 -4.091,0.515 -6.013,1.147c-0.95,0.313 -1.763,0.759 -2.837,0.69c-1.185,-0.075 -1.984,0.505 -1.732,1.881c0.408,2.232 -0.241,4.282 -1.013,6.327c-2.561,6.789 -4.299,13.785 -4.813,21.025c-0.734,10.349 1.398,20.183 5.994,29.444c1.072,2.156 2.474,4.337 4.247,5.922c5.988,5.351 10.45,5.57 16.349,2.384c3.844,-2.076 6.811,-5.164 9.268,-8.742c3.519,-5.124 5.764,-10.741 6.772,-16.899c1.006,-6.161 1.499,-12.323 0.041,-18.439c-0.768,-3.226 -2.04,-6.333 -3.108,-9.485c-0.243,-0.721 -0.69,-1.552 0.285,-1.928c1.864,-0.719 4.914,-1.271 6.943,-1.933c0,3.287 -0.259,4.986 -0.252,7.963c0.007,3.323 1.4,7.56 3.357,10.181c2.278,3.053 3.909,4.956 7.185,7.173c0.809,0.548 2.524,1.734 2.524,1.734c0,0 -0.685,1.088 -1.06,1.639c-1.344,1.966 -2.617,3.981 -3.883,5.998c-1.598,2.546 -2.311,5.32 -2.257,8.345c0.115,6.495 1.415,12.642 4.515,18.433c1.889,3.529 3.89,6.821 7.389,9.01c1.797,1.125 4.177,0.828 5.344,-1.011c3.343,-5.266 5.754,-10.965 7.239,-17c0.808,-3.282 1.168,-6.683 1.606,-10.045c0.645,-4.968 0.679,-9.931 -1.683,-14.515c-0.843,-1.639 -2.077,-3.183 -3.453,-4.413c-1.814,-1.622 -2.612,-2.533 -4.573,-3.998c-0.572,-0.427 -1.969,-1.343 -2.834,-1.922c-0.092,-0.061 5.251,-4.005 6.167,-4.963c2.935,-3.068 4.895,-5.332 6.724,-9.167c2.865,-6.009 5.576,-11.135 8.368,-17.18c0.777,-1.682 1.512,-1.899 3.244,-1.234c1.586,0.61 1.825,1.833 1.737,3.293c-0.309,5.094 -0.701,10.185 -0.882,15.284c-0.316,8.977 -0.668,17.959 -0.682,26.94c-0.01,6.468 1.628,12.652 4.517,18.484c1.115,2.251 2.055,4.588 3.094,6.877c0.291,0.636 0.651,1.242 0.978,1.863c0.14,-0.049 0.278,-0.099 0.416,-0.148c-0.084,-0.633 -0.279,-1.275 -0.221,-1.896c0.057,-0.616 0.369,-1.21 0.568,-1.812c0.442,0.362 1.004,0.644 1.305,1.098c0.96,1.454 1.824,2.972 2.788,4.569c1.278,-1.236 1.246,-2.593 1.195,-3.941c-0.045,-1.221 -0.227,-2.443 -0.198,-3.661c0.096,-3.934 0.249,-7.867 0.405,-11.8c0.176,-4.421 0.129,-8.869 0.628,-13.254c0.809,-7.092 2.051,-14.133 2.983,-21.212c0.701,-5.326 1.227,-11.527 1.785,-16.872c0.261,-2.502 0.506,-2.954 2.514,-3.281c7.94,-1.293 15.551,-3.809 23.207,-6.163c0,0 0.023,0.022 0.022,0.022m-130.158,60.002c0.317,0.661 -0.271,0.903 -0.429,0.119c0.152,0.757 -0.3,-1.515 -0.45,-2.273c0.293,0.719 0.586,1.437 0.879,2.154m7.094,9.404c-2.336,-0.201 -4.405,-1.121 -6.014,-2.923c-1.302,-1.459 -2.045,-2.567 -2.906,-4.313c-0.633,-1.283 -1.255,-3.019 -1.635,-4.445c-1.835,-6.901 -2.052,-13.837 -0.574,-20.823c0.109,-0.516 0.253,-1.027 0.42,-1.528c0.237,-0.704 0.612,-1.621 0.529,0.048c0.043,-0.859 -0.103,1.731 -0.303,2.562c-1.043,4.349 -1.324,7.002 -0.256,11.272c0.001,-0.008 0.335,0.767 0.33,0.758c0.144,0.249 0.27,1.5 0.405,1.623c1.429,1.285 1.429,3.03 1.61,4.721c-0.31,-0.575 -0.377,-1.391 -0.742,-1.93c-0.379,-0.561 -0.783,-0.845 -0.6,0.271c0.236,1.439 0.657,2.86 1.064,4.23c0.457,1.545 0.996,3.116 1.817,4.486c0.783,1.306 1.824,2.569 3.032,3.479c1.206,0.908 5.043,2.354 4.234,2.035c0.346,0.136 0.028,0.522 -0.411,0.477m-0.41,1.889c4.35,-0.513 6.177,-1.298 7.336,-2.654c0.076,-0.089 0.194,0.129 0.292,0.194c-0.305,0.437 -1.243,1.711 -1.357,2.127c0.379,0.003 0.421,0.009 0.801,0.001c0.195,-0.005 0.391,-0.045 0.604,-0.074c-0.775,2.019 -3.997,2.564 -6.68,1.121m16.737,-35.701c-0.456,6.898 -1.663,13.683 -4.513,20.018c-1.243,2.762 -3.038,5.29 -4.719,7.833c-1.22,1.846 -3.203,2.707 -5.26,3.301c-2.012,0.582 -3.637,-0.137 -4.561,-2.073c-1.526,-3.201 -1.914,-6.641 -1.921,-11.075c0.265,-4.558 0.971,-9.977 4.073,-14.668c1.245,-1.884 2.94,-3.577 4.733,-4.963c1.971,-1.523 4.296,-2.586 6.457,-3.862c1.051,-0.621 2.127,-1.212 3.11,-1.931c1.495,-1.093 2.052,-0.96 2.261,0.91c0.241,2.158 0.483,4.356 0.34,6.51m1.592,-3.919c-0.136,-0.713 -0.532,-2.851 -0.407,-2.137c-0.163,-0.927 0.494,-0.942 0.632,-0.109c-0.118,-0.713 0.242,1.429 0.269,2.153c0.099,2.705 -0.392,0.592 -0.494,0.093m34.399,19.613c0.938,0.839 2.583,4.012 2.913,8.457c0.084,1.597 0.058,2.643 -0.128,3.716c-0.319,1.831 -0.405,3.348 -1.113,5.265c-0.461,1.248 -1.777,2.046 -3.323,1.852c-4.227,-0.531 -8.935,-4.817 -9.857,-8.96c-0.422,-1.897 0.102,-3.599 0.913,-5.301c1.194,-2.505 2.353,-5.031 3.371,-7.611c0.192,-0.486 0.654,-1.309 0.654,-1.309c0,0 0.607,0.328 1,0.543c1.908,1.044 3.987,1.926 5.57,3.348" style="fill:#1d1d1b;fill-rule:nonzero;"/><path d="M190.781,229.123c-0.703,0.097 -1.234,0.066 -1.679,0.246c-4.482,1.816 -9.134,2.849 -13.956,3.19c-0.81,0.056 -1.272,-0.011 -1.437,-0.906c-0.147,-0.791 -0.635,-1.182 -1.536,-1.049c-2.453,0.363 -4.909,0.829 -7.377,0.932c-1.775,0.073 -3.7,1.445 -5.389,-0.319c-0.069,-0.069 -0.32,0.039 -0.487,0.06c-2.67,0.34 -5.334,0.747 -8.013,1.007c-6.698,0.646 -13.395,1.611 -20.105,1.727c-6.798,0.116 -13.607,-0.719 -20.418,-0.973c-4.362,-0.164 -8.736,-0.032 -13.166,-0.032c0.267,0.098 0.497,0.182 0.966,0.353c-0.494,0.187 -0.747,0.294 -1.008,0.379c-3.029,0.976 -6.067,1.926 -9.084,2.943c-0.514,0.173 -0.935,0.623 -1.513,1.025c0.537,0.342 0.795,0.507 1.187,0.758c-0.879,0.738 -1.656,1.389 -2.317,1.945c1.374,1.612 2.753,3.032 2.641,5.29c0.304,0.108 0.706,0.249 1.297,0.458c-0.575,0.435 -0.957,0.723 -1.415,1.072c0.143,-0.004 0.279,-0.006 0.407,-0.005c1.926,0.016 2.218,0.602 2.278,3.564c0.279,0.09 0.58,0.142 0.834,0.278c1.974,1.063 4.047,1.597 6.302,1.272c0.497,-0.072 1.01,-0.118 1.509,-0.079c7.417,0.592 14.846,1.087 22.247,1.834c8.078,0.816 16.102,0.933 24.15,-0.366c5.762,-0.928 11.307,-2.557 16.773,-4.52c4.381,-1.573 8.688,-3.37 13.324,-4.127c1.195,-0.196 2.36,-0.564 3.538,-0.852c-3.057,0.266 -5.998,1.448 -9.189,0.732c0.169,-0.441 0.407,-0.688 0.698,-0.809c1.538,-0.639 3.057,-1.346 4.641,-1.842c3.174,-0.996 6.499,-1.511 9.311,-3.536c1.307,-0.941 2.867,-1.529 4.559,-2.405c-1.331,0.308 -2.391,0.53 -3.439,0.8c-1.339,0.345 -1.335,0.361 -2.759,-0.141c1.231,-0.388 2.684,-0.363 2.858,-2.037c0.008,-0.085 0.174,-0.186 0.287,-0.224c1.088,-0.378 2.182,-0.744 3.354,-1.141c0.067,-0.171 0.197,-0.498 0.425,-1.069c-1.349,0.55 -2.518,1.027 -3.688,1.503c-0.055,-0.095 -0.11,-0.192 -0.165,-0.287c0.906,-0.65 1.811,-1.3 2.505,-1.797c-0.147,-1.58 1.518,-1.546 2.049,-2.852" style="fill:#1d1d1b;fill-rule:nonzero;"/><path d="M195.625,109.28c-0.112,-1.081 -0.263,-2.161 -0.326,-3.246c-0.07,-1.184 -0.076,-2.395 -0.262,-3.556c-0.282,-1.764 -0.718,-3.509 -1.179,-5.238c-0.43,-1.611 -0.975,-3.181 -1.586,-4.727c-0.138,-0.479 -0.283,-0.945 -0.452,-1.367c-2.543,-6.381 -9.466,-17.159 -13.189,-19.508c1.508,1.815 2.86,3.343 4.096,4.96c1.21,1.589 1.986,3.217 3.13,4.857c-0.1,0.068 0.116,0.187 0.017,0.255c-3.463,-4.59 -6.962,-9.147 -11.716,-12.524c-0.019,-0.015 -0.608,-0.282 -0.227,0.16c0.215,0.267 0.428,0.532 0.694,0.862c-0.386,0 -0.384,0.302 -0.935,0c2.352,2.608 4.654,5.158 6.956,7.709c-0.43,0.27 -1.255,-0.735 -1.339,-0.653c-6.41,-7.114 -12.331,-12.494 -21.693,-15.444c3.913,1.455 8.402,3.584 10.895,6.319c0.281,0.299 -0.751,-0.209 -1.036,-0.289c-0.738,-0.167 -0.738,0.097 -0.269,0.35c0.399,0.276 0.918,1.762 -0.605,0.818c-1.883,-1.286 -4.353,-2.369 -5.967,-3.472c-0.485,0.408 0.468,0.787 0.411,0.835c3.257,2.42 7.16,5.262 10.452,7.709c-0.087,0.119 1.546,1.627 -0.871,-0.039c-2.633,-1.866 -5.133,-3.97 -7.937,-5.529c-2.86,-1.592 -5.871,-3.186 -8.999,-4.155c-3.092,-0.959 -5.968,-1.282 -9.194,-1.709c-6.459,-0.857 -10.511,-0.421 -17.129,0.773c-4.109,0.163 8.585,-3.472 16.612,-3.588c0.002,-0.146 0.003,-0.29 0.004,-0.435c-3.367,-0.148 -6.733,-0.295 -10.1,-0.443c-0.003,-0.055 -0.005,-0.109 -0.008,-0.164c2.67,-0.531 8.412,-0.494 11.082,-1.026c-0.439,-0.178 -0.876,-0.194 -1.304,-0.171c-3.903,0.213 -8.786,-0.411 -16.691,1.522c-6.798,1.662 -13.487,3.763 -19.283,7.68c-14.148,9.563 -19.925,19.572 -23.526,25.998c-1.45,2.588 -2.616,5.403 -3.666,8.209c-0.705,1.886 -1.007,3.921 -1.388,5.476c-0.561,0.33 -0.984,0.429 -1.121,0.683c-0.757,1.393 -0.676,3.006 -0.867,4.499c-0.503,3.929 -0.814,7.894 -0.959,11.854c-0.108,2.957 0.076,5.933 0.278,8.891c0.357,5.227 1.485,10.318 2.875,15.36c0.368,1.329 2.513,8.186 5.066,14.476c2.552,6.288 8.643,17.337 10.489,20.55c3.847,6.698 8.397,12.863 14.521,17.692c2.12,1.671 4.331,3.265 6.661,4.618c1.597,0.928 3.507,1.297 5.212,2.059c4.369,1.954 9.011,2.654 13.704,2.676c4.414,0.021 8.729,-0.929 13.035,-2.027c4.959,-1.266 8.274,-2.667 12.912,-4.731c1.104,-0.49 1.296,-0.667 2.334,-1.308c0.751,-0.453 2.053,-1.465 0.934,-0.983c-1.099,0.467 -1.143,0.559 -2.243,1.026c-0.403,0.119 -2.924,1.374 -0.204,-0.373c6.395,-4.03 6.882,-5.332 10.137,-8.425c1.951,-1.929 1.073,-1.214 -0.216,-0.678c-3.472,2.306 -0.444,-1.5 1.626,-3.119c1.387,-1.415 1.249,-1.274 0.543,-1.79c-0.543,-0.271 -4.963,2.93 -5.357,2.485c-0.366,-0.396 3.04,-4.001 5.076,-6.043c-0.026,-0.057 0.959,-1.487 -0.207,-0.51c-0.523,0.187 -11.663,5.751 -12.097,5.642c-0.109,-0.598 12.936,-5.952 14.43,-8.464c0.412,-0.694 -1.062,0.476 -1.072,-0.262c-0.007,-0.603 0.258,-1.763 0.506,-2.356c0.182,-0.437 0.619,-0.847 0.62,-1.269c0.007,-1.547 0.891,-2.445 2.048,-3.238c0.331,-0.227 0.605,-0.593 0.803,-0.952c0.804,-1.451 -0.953,-1.252 2.464,-4.615c0.353,-0.665 -1.71,-2.607 -2.387,-4.165c-0.439,-1.009 -0.624,-1.66 -0.387,-2.691c0.253,-1.1 2.78,-5.649 3.457,-6.714c1.058,0.163 -1.058,3.092 -1.027,3.425c0.244,-0.271 0.987,-1.278 1.136,-1.581c0.938,-1.9 1.196,-2.114 1.956,-4.086c1.327,-3.443 1.945,-5.357 3.03,-9.089c0.488,-1.701 0.888,-3.136 0.949,-3.417c0.903,-4.111 3.485,-17.505 3.485,-17.505c1.601,3.971 -0.417,9.957 -0.501,14.034c1.173,-6.176 2.654,-15.292 2.254,-21.592c0.038,-1.185 -0.036,-1.931 -0.165,-2.894c-0.068,-0.506 -0.202,-1.14 0.225,-1.724c0.182,-0.106 0.392,0.242 0.435,0.393c0.153,0.54 0.266,1.095 0.352,1.651c0.197,1.278 0.369,2.558 0.575,4.011c0.098,-1.472 -0.393,-2.755 -0.156,-4.061c0.116,0.165 0.127,0.362 0.225,0.497c0.096,0.136 0.3,0.307 0.42,0.282c0.141,-0.028 0.314,-0.238 0.343,-0.393c0.041,-0.219 -0.061,-0.459 -0.059,-0.692c0.001,-0.235 0.058,-0.718 0.058,-0.718c0.077,-0.739 -0.42,-2.054 -0.669,-3.07c-0.118,-0.478 -0.302,-0.939 -0.425,-1.414c-0.465,-1.781 -0.908,-3.568 -1.375,-5.348c-0.149,-0.564 -0.904,-2.611 -1.115,-3.281c0.215,0.113 0.948,1.712 0.95,1.72c0.044,0.001 0.088,0.001 0.131,0.002c0.007,-0.008 0.013,-0.016 0.021,-0.024l0.015,0.024l-0.001,0c0.037,0.055 0.08,0.109 0.103,0.169c1.208,3.084 2.093,6.284 2.511,9.563c0.025,0.2 0.086,0.396 0.13,0.592c0.054,-0.013 0.107,-0.025 0.16,-0.039c-0.019,-0.148 -0.041,-0.294 -0.057,-0.442m-52.84,-42.323c0.736,-0.018 3.202,-0.121 2.116,-0.326c-1.872,-0.352 -6.022,-0.637 -9.059,-0.65c-0.957,-0.002 -1.093,-0.301 -0.01,-0.376c1.738,-0.169 5.488,-0.493 10.833,-0.235c0.013,-0.066 0.025,-0.131 0.038,-0.195c-1.527,-0.154 -8.909,-1.256 -5.763,-1.31c10.931,-0.596 18.964,2.861 23.633,8.229c-1.224,-0.703 -2.256,-1.295 -3.289,-1.887c-0.034,0.064 -0.068,0.128 -0.102,0.192c3,2.345 6.001,4.688 9,7.033c1.232,1.256 -0.111,0.604 -0.371,0.446c-1.539,-1.258 -6.207,-3.734 -6.439,-3.828c-1.863,-0.748 -2.717,-1.223 -4.619,-1.84c-2.468,-0.802 -4.592,-1.587 -7.099,-2.269c-1.48,-0.403 -3.354,-0.708 -4.852,-1.015c-2.182,-0.45 -5.049,-0.526 -7.272,-0.694c-6.425,-0.487 -12.45,1.262 -12.477,0.786c4.178,-2.047 12.847,-2.061 15.732,-2.061m26.086,123.92c1.462,-0.82 1.847,-1.549 3.32,-2.346c1.309,-0.719 1.651,0.129 0.321,0.698c-4.068,3.472 -7.263,5.661 -11.601,8.364c-2.665,1.663 -5.6,2.943 -8.519,4.141c-4.267,1.752 -8.688,2.93 -13.391,2.467c-0.58,-0.056 -1.17,-0.007 -1.758,0.002c1.213,0.163 3.141,0.449 4.766,0.583c0.001,0.088 -1.251,0.059 -1.25,0.148c-1.79,0 -3.603,0.181 -5.365,-0.042c-2.945,-0.371 -5.931,-0.756 -8.767,-1.589c-3.211,-0.945 -6.274,-2.391 -9.403,-3.615c-0.331,-0.13 -0.729,-0.412 -0.997,-0.324c-1.406,0.463 -3.833,-0.778 -4.688,-1.455c-1.549,-1.226 -9.113,-8.191 -6.618,-6.619c6.807,4.584 9.895,5.551 16.056,7.379c0.739,0.218 7.812,1.424 8.611,1.381c-0.227,-0.074 -0.454,-0.15 -0.681,-0.224c0.006,-0.058 0.011,-0.116 0.016,-0.174c1.98,0 5.373,0.187 7.352,0.21c9.981,0.116 14.519,-1.076 18.769,-2.278c4.973,-1.407 9.352,-4.197 13.827,-6.707m16.094,-56.691c-0.047,1.866 -0.336,3.735 -0.617,5.568c-1.427,9.3 -5.68,16.556 -5.619,16.594c-0.997,1.488 -1.57,3.036 -2.662,4.451c-2.572,3.336 -6.558,4.696 -9.921,6.924c-0.141,0.093 -0.338,0.167 -0.499,0.152c-3.119,-0.311 -5.519,1.454 -8.054,2.801c-3.304,1.758 -11.98,7.305 -19.799,8.464c-3.531,0.522 -12.246,1.372 -20.916,-5.886c-6.524,-5.462 -10.37,-14.445 -11.086,-16.261c-2.707,-6.854 -4.415,-16.263 -4.606,-18.683c-0.388,-4.901 -0.844,-9.921 -0.427,-15.743c0.462,-6.432 1.845,-13.385 3.988,-18.061c2.58,-5.63 5.972,-14.191 18.922,-21.819c5.338,-3.144 10.463,-4.447 14.864,-4.864c5.575,-0.529 11.074,0.068 16.476,1.414c4.631,1.155 8.914,3.169 12.785,5.976c8.19,5.938 13.072,16.354 15.49,25.78c0.541,2.112 2.085,6.902 1.681,23.193" style="fill:#1d1d1b;fill-rule:nonzero;"/><path d="M494.094,168.781c0,0 -2.099,1.028 -2.953,1.423c0.722,-0.598 3.074,-2.939 2.359,-2.329c0.669,-0.571 0.594,0.906 0.594,0.906m-7.615,4.26c-1.514,0.77 -2.791,1.563 -5.729,2.375l0.767,-0.625c0.393,-0.174 0.657,-0.45 0.968,-0.641l-0.001,-0.519c0.103,0.306 0.198,0.36 0.281,0.16c0.085,-0.198 0.297,-0.355 0.636,-0.469c0.103,0.305 0.147,0.377 0.127,0.211c-0.017,-0.163 0.043,-0.269 0.177,-0.314c1.139,-0.213 2.41,-0.516 3.608,-1.219c1.199,-0.701 2.334,-1.038 3.504,-1.602c-1.677,1.076 -2.82,1.877 -4.338,2.643m-22.669,-21.983c-0.206,0.334 -0.371,0.879 -0.723,0.903l-0.197,-0.008c-0.941,-0.236 -0.806,-3.828 -0.473,-5.745c3.044,-17.503 7.002,-21.089 8.521,-23.177c0.25,-0.344 1.844,-1.938 3.502,-1.616c0.703,0.136 5.081,1.554 -10.63,29.643m43.06,8.9c3.305,-3.218 5.257,-6.399 8.255,-9.917c1.176,-1.38 2.781,-3.634 4.033,-4.967c-0.517,0.551 -1.923,1.707 -2.283,2.129c-3.071,3.605 -4.77,5.431 -7.854,9.023c-1.586,1.849 -3.065,3.33 -4.896,4.899c-2.298,1.968 -4.705,3.94 -7.203,5.672c-0.266,0.185 -0.969,0.375 -1.128,0.501c0.355,-0.282 1.406,-1.377 2.075,-2.025c1.893,-1.833 3.75,-3.704 5.571,-5.607c0.79,-0.827 1.417,-1.81 2.19,-2.654c1.188,-1.296 2.421,-2.552 3.663,-3.798c1.942,-1.949 0.067,-0.636 -0.282,-0.354c-0.307,0.249 -0.627,0.487 -0.927,0.744c-3.515,3.004 -6.896,6.185 -10.575,8.972c-4.958,3.756 -10.318,6.928 -16.489,8.253c-1.785,0.384 -3.916,0.432 -5.587,-0.185c-3.854,-1.421 -6.828,-4.136 -9.004,-7.674c-0.614,-1.001 -0.629,-1.816 0.194,-2.748c2.479,-2.808 4.818,-5.773 7.382,-8.459c5.662,-5.93 7.838,-11.085 10.026,-18.076c0.323,-1.032 0.38,-2.129 0.469,-3.187c0.209,-2.459 -0.881,-5.258 -1.125,-6.084c1.231,4.177 -0.536,7.234 -1.954,10.248c0.317,-3.226 1.022,-5.343 1.204,-8.373c0.174,-2.901 0.183,-6.801 -2.594,-8.927c-0.942,-0.721 -1.868,-1.529 -2.584,-2.462c-0.75,-0.98 -6.03,-1.027 -9.525,1.548c-5.816,4.286 -8.861,10.891 -11.322,17.693c-2.246,6.204 -3.224,12.467 -2.772,19.03c0.35,5.098 1.237,9.816 3.089,14.493c1.291,3.26 3.334,6.631 5.352,9.497c2.481,3.524 5.423,5.037 8.606,6.149c6.438,2.25 10.811,1.635 16.58,-0.221c3.195,-1.029 6.098,-2.968 9.129,-4.505c3.888,-1.969 6.746,-5.697 8.916,-9.399c0.709,-1.209 1.226,-1.853 1.913,-3.077c0.69,-1.233 1.863,-3.148 2.587,-4.36c-0.127,-0.085 -0.729,0.625 -1.271,1.125c-0.989,0.913 -1.484,1.198 -2.541,2.031c-0.287,0.226 -0.992,0.643 -0.75,0.234c2.687,-4.536 0.781,-2.669 0.781,-2.669c0,0 -7.107,6.029 -10.873,9.224c-0.159,0.188 -0.442,0.409 -0.874,0.637c0.315,-0.162 0.378,-0.195 -0.021,0.013c0.008,-0.005 0.013,-0.009 0.021,-0.013c-0.798,0.409 -3.264,1.667 -4.323,2.116c-5.528,2.341 -1.418,-0.012 -0.441,-0.551c1.029,-0.555 3.565,-1.915 4.285,-2.305c-0.031,0.016 -0.053,0.022 -0.085,0.039c0.374,-0.197 0.345,-0.18 0.085,-0.039c0.544,-0.276 0.939,-0.384 1.192,-0.382c0.07,-1.104 0.514,-0.679 1.294,-1.335c3.633,-3.058 6.996,-6.61 10.391,-9.917" style="fill:#1d1d1b;fill-rule:nonzero;"/></g></svg>