<svg id="Layer_1" data-name="Layer 1" xmlns="http://www.w3.org/2000/svg" viewBox="0 0 362.05 85.04"><defs><style>.cls-1{fill:#393938;}</style></defs><title>CombinatielogoVLAIO_antraciet_cs6</title><path class="cls-1" d="M243.78,23.5l-6.22,18h-3.7l-6.22-18H231l4.72,13.7,4.72-13.7h3.35Z" transform="translate(0 0)"/><path class="cls-1" d="M248.68,21.74h0.4V41.27h-3.16V22Z" transform="translate(0 0)"/><path class="cls-1" d="M263.17,41.54A4,4,0,0,1,260,40.07a8.15,8.15,0,0,1-1.62,1,5,5,0,0,1-2.16.43,5.22,5.22,0,0,1-3-.84,4.11,4.11,0,0,1-1.59-3.63,3.61,3.61,0,0,1,1.05-2.87,5.75,5.75,0,0,1,3.86-1c0.76,0,1.63,0,2.87.11v-0.7a2.51,2.51,0,0,0-.81-2.05,3,3,0,0,0-1.93-.57,9.58,9.58,0,0,0-3.75,1l-0.74-2.75A12.38,12.38,0,0,1,257.31,27,6,6,0,0,1,261,28a4.22,4.22,0,0,1,1.57,3.59v5.21a1.78,1.78,0,0,0,.59,1.44,3.13,3.13,0,0,0,1.48.65Zm-3.76-5.93a17.08,17.08,0,0,0-3.4.16,1.34,1.34,0,0,0-1.21,1.42,1.75,1.75,0,0,0,2,1.78,3.2,3.2,0,0,0,1.62-.43,2.26,2.26,0,0,0,1-2.08V35.61Z" transform="translate(0 0)"/><path class="cls-1" d="M277.07,41.54a4,4,0,0,1-3.14-1.47,8.15,8.15,0,0,1-1.62,1,5,5,0,0,1-2.16.43,5.22,5.22,0,0,1-3-.84,4.1,4.1,0,0,1-1.59-3.63,3.61,3.61,0,0,1,1.05-2.87,5.75,5.75,0,0,1,3.86-1c0.76,0,1.63,0,2.87.11v-0.7a2.51,2.51,0,0,0-.81-2.05,3,3,0,0,0-1.93-.57,9.57,9.57,0,0,0-3.75,1l-0.74-2.75A12.38,12.38,0,0,1,271.21,27a6,6,0,0,1,3.66,1,4.22,4.22,0,0,1,1.56,3.59v5.21a1.78,1.78,0,0,0,.59,1.44,3.13,3.13,0,0,0,1.48.65Zm-3.76-5.93a17.09,17.09,0,0,0-3.4.16,1.34,1.34,0,0,0-1.21,1.42,1.75,1.75,0,0,0,2,1.78,3.2,3.2,0,0,0,1.62-.43,2.26,2.26,0,0,0,1-2.08V35.61Z" transform="translate(0 0)"/><path class="cls-1" d="M280.38,27.27h2.67l0.31,1.09A8.2,8.2,0,0,1,287.83,27a5.37,5.37,0,0,1,3.55,1.17,4.78,4.78,0,0,1,1.54,3.8v9.29h-3.16V32.91a2.69,2.69,0,0,0-1-2.23,3.52,3.52,0,0,0-2.21-.65,5.9,5.9,0,0,0-3,.86V41.27h-3.16v-14Z" transform="translate(0 0)"/><path class="cls-1" d="M308,41.27h-2.39l-0.57-1.05a5.93,5.93,0,0,1-3.76,1.32,5.5,5.5,0,0,1-4.49-2,7.47,7.47,0,0,1-1.47-4.64,8,8,0,0,1,2.12-5.92A7.42,7.42,0,0,1,302.79,27a16.38,16.38,0,0,1,2.06.13V22l2.67-.27H308V41.27Zm-3.16-11a9.47,9.47,0,0,0-2.24-.3A3.91,3.91,0,0,0,299.71,31a4.54,4.54,0,0,0-1.11,3.26,5,5,0,0,0,.86,2.9A3,3,0,0,0,302,38.51a5.71,5.71,0,0,0,2.87-.86V30.24Z" transform="translate(0 0)"/><path class="cls-1" d="M321.76,37.65v3.06a9.51,9.51,0,0,1-4,.84,7.43,7.43,0,0,1-5.06-1.81,7.11,7.11,0,0,1-2.16-5.46,7.6,7.6,0,0,1,2-5.41A6,6,0,0,1,316.87,27a6.56,6.56,0,0,1,2.06.34,4.92,4.92,0,0,1,2.4,1.75,7.1,7.1,0,0,1,1.15,4.25v2.1H314a3.67,3.67,0,0,0,1.59,2.39,4.65,4.65,0,0,0,2.55.69,7.6,7.6,0,0,0,3.52-.92ZM319.59,33a3.38,3.38,0,0,0-.92-2.24A2.42,2.42,0,0,0,317,30a2.79,2.79,0,0,0-1.85.69A3.88,3.88,0,0,0,313.94,33h5.65Z" transform="translate(0 0)"/><path class="cls-1" d="M333.32,30.75a4.47,4.47,0,0,0-2.37-.7,4.62,4.62,0,0,0-2.82,1v10.2H325v-14h2.67L328,28.42A5.47,5.47,0,0,1,331.52,27a8.15,8.15,0,0,1,1.42.12,4.72,4.72,0,0,1,1.38.43Z" transform="translate(0 0)"/><path class="cls-1" d="M346.31,37.65v3.06a9.51,9.51,0,0,1-4,.84,7.43,7.43,0,0,1-5.06-1.81,7.11,7.11,0,0,1-2.16-5.46,7.6,7.6,0,0,1,2-5.41A6,6,0,0,1,341.42,27a6.56,6.56,0,0,1,2.06.34,4.92,4.92,0,0,1,2.4,1.75A7.1,7.1,0,0,1,347,33.34v2.1h-8.5a3.67,3.67,0,0,0,1.59,2.39,4.65,4.65,0,0,0,2.55.69,7.6,7.6,0,0,0,3.52-.92ZM344.14,33a3.38,3.38,0,0,0-.92-2.24,2.42,2.42,0,0,0-1.71-.67,2.79,2.79,0,0,0-1.85.69A3.88,3.88,0,0,0,338.49,33h5.65Z" transform="translate(0 0)"/><path class="cls-1" d="M349.51,27.27h2.67l0.31,1.09A8.2,8.2,0,0,1,357,27a5.37,5.37,0,0,1,3.55,1.17A4.78,4.78,0,0,1,362,32v9.29h-3.16V32.91a2.69,2.69,0,0,0-1-2.23,3.52,3.52,0,0,0-2.21-.65,5.9,5.9,0,0,0-3,.86V41.27h-3.16v-14Z" transform="translate(0 0)"/><path class="cls-1" d="M232.53,49.78a0.81,0.81,0,0,1,1.61,0,0.81,0.81,0,0,1-.81.79A0.83,0.83,0,0,1,232.53,49.78Zm0.22,2.12h1.15v7.78h-1.15V51.9Z" transform="translate(0 0)"/><path class="cls-1" d="M235.94,58.39l0,0a5.49,5.49,0,0,0,1.79.39c0.82,0,2-.37,2-1.26a1,1,0,0,0-.58-0.9c-0.46-.29-1.27-0.53-2-0.91A2,2,0,0,1,236,53.8c0-1.48,1.23-2,2.64-2a6,6,0,0,1,1.58.22v1l0,0a7.75,7.75,0,0,0-1.72-.25c-0.68,0-1.32.2-1.32,0.91a1.1,1.1,0,0,0,.61.94c0.49,0.32,1.42.59,2.17,1a1.64,1.64,0,0,1,1,1.72,2.22,2.22,0,0,1-1,1.88,3.93,3.93,0,0,1-2.17.61,4.51,4.51,0,0,1-1.77-.35V58.39Z" transform="translate(0 0)"/><path class="cls-1" d="M246.58,55.81a4.36,4.36,0,0,1,1-2.88,3.4,3.4,0,0,1,5.15,0,4.64,4.64,0,0,1,0,5.71,3.39,3.39,0,0,1-2.6,1.18,3.28,3.28,0,0,1-2.56-1.18A4.35,4.35,0,0,1,246.58,55.81Zm1.16-.06a3.49,3.49,0,0,0,.61,2.11,2.19,2.19,0,0,0,1.83.89,2.13,2.13,0,0,0,1.77-.83,3.41,3.41,0,0,0,.6-2.08,3.63,3.63,0,0,0-.6-2.12,2.13,2.13,0,0,0-1.81-.88,2.16,2.16,0,0,0-1.78.84A3.42,3.42,0,0,0,247.74,55.75Z" transform="translate(0 0)"/><path class="cls-1" d="M255.51,51.9h0.78l0.22,0.72a6.58,6.58,0,0,1,1.12-.59,3.41,3.41,0,0,1,1.21-.28,2.79,2.79,0,0,1,1.93.65,3,3,0,0,1,.82,2.3v5h-1.16V54.77a2.09,2.09,0,0,0-.49-1.54,1.67,1.67,0,0,0-1.21-.41,2.92,2.92,0,0,0-1.08.24,7.06,7.06,0,0,0-1,.51v6.11h-1.16V51.9Z" transform="translate(0 0)"/><path class="cls-1" d="M269.82,59.69h-0.73L268.85,59a3.22,3.22,0,0,1-2.19.83,3,3,0,0,1-2.44-1.23,4.75,4.75,0,0,1-.91-2.92,4.07,4.07,0,0,1,1-2.79,3.81,3.81,0,0,1,3-1.14,7.36,7.36,0,0,1,1.44.16V49l1.09-.15h0.07V59.69Zm-1.16-6.56a4.24,4.24,0,0,0-1.52-.31,2.57,2.57,0,0,0-1.92.74,3.08,3.08,0,0,0-.76,2.22,3.63,3.63,0,0,0,.55,2.07,2.08,2.08,0,0,0,1.8.91,2.15,2.15,0,0,0,1.84-.85V53.12Z" transform="translate(0 0)"/><path class="cls-1" d="M277.62,56.08h-4.85a2.55,2.55,0,0,0,2.57,2.67,4.63,4.63,0,0,0,2.1-.55h0v1.07a4.91,4.91,0,0,1-2.23.55c-2.26,0-3.61-1.6-3.61-4.13,0-2.26,1-3.94,3.34-3.94,2,0,2.66,1.49,2.66,3.28v1Zm-1.14-1c0-1.21-.33-2.2-1.54-2.2a2.23,2.23,0,0,0-2.11,2.2h3.66Z" transform="translate(0 0)"/><path class="cls-1" d="M279.38,51.9h0.78l0.27,0.88a2.51,2.51,0,0,1,1.91-1,3.56,3.56,0,0,1,.65.07,2.9,2.9,0,0,1,.64.2l-0.4,1a2.78,2.78,0,0,0-1.07-.24,2,2,0,0,0-1.61,1v5.81h-1.16V51.9Z" transform="translate(0 0)"/><path class="cls-1" d="M285,51.9h0.78L286,52.62a6.6,6.6,0,0,1,1.12-.59,3.41,3.41,0,0,1,1.21-.28,2.79,2.79,0,0,1,1.93.65,3,3,0,0,1,.82,2.3v5h-1.16V54.77a2.09,2.09,0,0,0-.49-1.54,1.67,1.67,0,0,0-1.21-.41,2.92,2.92,0,0,0-1.08.24,7,7,0,0,0-1,.51v6.11H285V51.9Z" transform="translate(0 0)"/><path class="cls-1" d="M298.81,56.08H294a2.55,2.55,0,0,0,2.57,2.67,4.63,4.63,0,0,0,2.1-.55h0v1.07a4.91,4.91,0,0,1-2.23.55c-2.26,0-3.61-1.6-3.61-4.13,0-2.26,1-3.94,3.34-3.94,2,0,2.66,1.49,2.66,3.28v1Zm-1.14-1c0-1.21-.33-2.2-1.54-2.2A2.23,2.23,0,0,0,294,55h3.66Z" transform="translate(0 0)"/><path class="cls-1" d="M306.15,59.68H305V54.76a2.33,2.33,0,0,0-.4-1.51,1.28,1.28,0,0,0-1-.43,3.07,3.07,0,0,0-1.84.73v6.12h-1.16V51.9h0.73l0.26,0.71a7.23,7.23,0,0,1,1.21-.66,2.62,2.62,0,0,1,1-.2,2.19,2.19,0,0,1,1.78.84,6.78,6.78,0,0,1,1.12-.57,3.37,3.37,0,0,1,1.17-.27,2.79,2.79,0,0,1,1.93.65,3,3,0,0,1,.82,2.3v5h-1.16V54.77a2.09,2.09,0,0,0-.49-1.54,1.67,1.67,0,0,0-1.21-.41,3.77,3.77,0,0,0-1.75.58,4.33,4.33,0,0,1,.18,1.3v5Z" transform="translate(0 0)"/><path class="cls-1" d="M318.31,56.08h-4.85A2.55,2.55,0,0,0,316,58.75a4.63,4.63,0,0,0,2.1-.55h0v1.07a4.91,4.91,0,0,1-2.23.55c-2.26,0-3.61-1.6-3.61-4.13,0-2.26,1-3.94,3.34-3.94,2,0,2.66,1.49,2.66,3.28v1Zm-1.14-1c0-1.21-.33-2.2-1.54-2.2a2.23,2.23,0,0,0-2.11,2.2h3.66Z" transform="translate(0 0)"/><path class="cls-1" d="M320.07,51.9h0.78l0.22,0.72a6.6,6.6,0,0,1,1.12-.59,3.41,3.41,0,0,1,1.21-.28,2.79,2.79,0,0,1,1.93.65,3,3,0,0,1,.82,2.3v5H325V54.77a2.09,2.09,0,0,0-.49-1.54,1.67,1.67,0,0,0-1.21-.41,2.92,2.92,0,0,0-1.08.24,7,7,0,0,0-1,.51v6.11h-1.16V51.9Z" transform="translate(0 0)"/><rect class="cls-1" x="213.08" y="-2.32" width="0.43" height="89.68" transform="translate(-2.33 70.95) rotate(-18.78)"/><path class="cls-1" d="M199.24,42.34c-2.08-1.59-3.06,0-4.37-.09-1.11-.09-2.15-1.88-3-1.45-1.64.83,0.66,3.78,1.65,4.38a24.08,24.08,0,0,0,2.27,1.14,3.32,3.32,0,0,1,2,3,5.74,5.74,0,0,1-.08,1.45c-0.6,2.55-5.06,4.86-7.63,3.11a5.8,5.8,0,0,1-2.69-3.79c-0.69-3.35-3.11-5.81-3.88-9.09-0.47-2-.82-4.09-1.34-6.1s-1.07-4.12-1.51-6a53.29,53.29,0,0,0-1.83-6c-2.45-6.39-3.56-5.93-3.56-5.93s0.89,1.77,4.13,17.44c0.13,0.64,1.31,7.54,2.17,9.82,0.31,0.81.84,2.55,1.2,3.32,1,2.25,3.75,5.65,3.93,8.72,0.1,1.77.31,3.24,0.35,4.58a14.33,14.33,0,0,0,.46,2.7c0.66,1.87,6,7.91,11.73,7.91V66.94c-5.66,0-11-3.17-11.13-3.51a12.37,12.37,0,0,1,.68-3.28,5.36,5.36,0,0,1,4.6-3.75c2.74-.2,4.4.6,5.85,0.6V42.34Z" transform="translate(0 0)"/><path class="cls-1" d="M174.65,25.74c-0.21,3.43-5.51,8.11-7.17,11.12a22.13,22.13,0,0,0-2.06,5.48,14.62,14.62,0,0,0,1.19,9c1.75,4.21-.24,5.75,1.13,4.9,1.7-1.38,1.44-4.61,1.31-6.63a28.74,28.74,0,0,1,0-5.44c0.47-3.65,2.68-7.56,4.56-10.3a9.4,9.4,0,0,0,1-8.15" transform="translate(0 0)"/><path class="cls-1" d="M175.72,35.47s0.56,2.71-1.83,9.69c-6.26,18.26,5.7,20,9.11,24.28,0,0,1.32-1.86-4.11-7.81-2-2.17-3.77-7-2.21-13.81,2.25-9.91-1-12.35-1-12.35" transform="translate(0 0)"/><path class="cls-1" d="M163.87,23.5a8.79,8.79,0,0,1-.31-2.9c0.29-4.29,4.19-6,5.16-6.67,0,0,1.75-1.2,2-2.41,0,0,1.79,4.52-2.32,7.1a11.69,11.69,0,0,0-4.5,4.88" transform="translate(0 0)"/><path class="cls-1" d="M173.7,19.35c0.22,0.44,1.84,2.8-4.78,8.26S164.38,37,164.38,37s-7-3.92,1.07-10.69,6.45-8.14,6.45-8.14a2,2,0,0,1,1.79,1.22" transform="translate(0 0)"/><path class="cls-1" d="M182.28,21.44c1.14,0.15,1.87,3.71,4.51,4.49,1.94,0.57,4,.26,4.47,1.43a1,1,0,0,0,.71,1.78C192.71,27.06,193.08,19,182.28,21.44Zm3.56,1.6c0.1-.26.23-0.05,0.52-0.23a3.21,3.21,0,0,1,1.13-.93,2,2,0,0,1,1.19.07c0.22,0.06.09,0.63-.08,0.78-0.36.26-1.41-.17-1.41,0.62,0,1.3,1.75,0,2.65,0C190.27,26.52,185.06,25.65,185.84,23Z" transform="translate(0 0)"/><path class="cls-1" d="M10.24,23.78h-7L1.93,27.49H0L5.47,11.57H8l5.48,15.92H11.52ZM3.81,22H9.65L6.73,13.57Z" transform="translate(0 0)"/><path class="cls-1" d="M26.18,27.52H25.46l-1.11-.86a5.76,5.76,0,0,1-3.52,1.08,6.84,6.84,0,0,1-5.3-2.37,9,9,0,0,1-2-5.93,8.52,8.52,0,0,1,1.93-5.73,7.62,7.62,0,0,1,6-2.38,15.07,15.07,0,0,1,1.91.13,12.82,12.82,0,0,1,1.82.36v1.72l-0.1,0a10.82,10.82,0,0,0-1.8-.39,12.9,12.9,0,0,0-1.69-.12,6,6,0,0,0-4.63,1.82,6.46,6.46,0,0,0-1.53,4.42A7.24,7.24,0,0,0,17,24,5.2,5.2,0,0,0,21,26a4.76,4.76,0,0,0,2.23-.53,3.85,3.85,0,0,0,1.08-.85v-4H20.91V18.75h5.27v8.77Z" transform="translate(0 0)"/><path class="cls-1" d="M28.81,11.57H38.4v1.74H30.68v5.35H38.4V20.4H30.68v5.35H38.4v1.74H28.81V11.57Z" transform="translate(0 0)"/><path class="cls-1" d="M42.81,15.07V27.49H40.94V11.57h1.94l7.69,12.31V11.57h1.87V27.49H50.58Z" transform="translate(0 0)"/><path class="cls-1" d="M54.31,11.57H66v1.74H61.1V27.49H59.24V13.31H54.31V11.57Z" transform="translate(0 0)"/><path class="cls-1" d="M66.72,25.34h0a10,10,0,0,0,3.5.66c1.84,0,3.65-.66,3.65-2.62a2.48,2.48,0,0,0-1.4-2.26c-0.76-.48-3.79-1.91-4.45-2.45a3.67,3.67,0,0,1-1.26-3c0-3,2.14-4.29,4.93-4.29a10.07,10.07,0,0,1,2.8.42v1.59l0,0A14.49,14.49,0,0,0,71.73,13c-1.76,0-3.23.57-3.23,2.43a1.92,1.92,0,0,0,.69,1.61c0.79,0.7,3.26,1.7,4.46,2.56s2,1.55,2,3.32c0,3.16-2.65,4.77-5.68,4.77a7.44,7.44,0,0,1-3.25-.7V25.34Z" transform="translate(0 0)"/><path class="cls-1" d="M89.31,25.52v1.72a13,13,0,0,1-1.81.36,12.71,12.71,0,0,1-1.86.13,7.55,7.55,0,0,1-6-2.37,9,9,0,0,1-2-6.09,8.54,8.54,0,0,1,2-5.67,7.7,7.7,0,0,1,5.93-2.28,14.64,14.64,0,0,1,1.86.13,13,13,0,0,1,1.81.36v1.72l-0.08,0a11,11,0,0,0-1.81-.39,12.59,12.59,0,0,0-1.68-.12,6,6,0,0,0-4.63,1.79,6.78,6.78,0,0,0-1.55,4.65,6.8,6.8,0,0,0,1.53,4.64A5.94,5.94,0,0,0,85.73,26a12.59,12.59,0,0,0,1.68-.12,11,11,0,0,0,1.81-.39Z" transform="translate(0 0)"/><path class="cls-1" d="M101.37,20.46H93.6v7H91.73V11.57H93.6v7h7.77v-7h1.87V27.49h-1.87v-7Z" transform="translate(0 0)"/><path class="cls-1" d="M115.22,23.78h-7l-1.28,3.71H105l5.47-15.92H113l5.48,15.92H116.5ZM108.78,22h5.85l-2.92-8.47Z" transform="translate(0 0)"/><path class="cls-1" d="M120.18,27.49V11.57h3.13a11.32,11.32,0,0,1,5.88,1.21,4.34,4.34,0,0,1,2,4,4.93,4.93,0,0,1-1.11,3.36,5.88,5.88,0,0,1-2.88,1.76,14.23,14.23,0,0,1-4,.51H122v5.12h-1.87ZM122,13.33v7.27h1.5a9,9,0,0,0,4.19-.76A2.93,2.93,0,0,0,129.3,17a3.1,3.1,0,0,0-1.67-2.94,8.72,8.72,0,0,0-4.08-.76H122Z" transform="translate(0 0)"/><path class="cls-1" d="M4.1,33.84V49.76H1.27V33.84H4.1Z" transform="translate(0 0)"/><path class="cls-1" d="M9.57,39.17V49.76H6.74V33.84H9.57l6.62,10.59V33.84H19V49.76H16.19Z" transform="translate(0 0)"/><path class="cls-1" d="M24.49,39.17V49.76H21.66V33.84h2.83l6.62,10.59V33.84h2.83V49.76H31.11Z" transform="translate(0 0)"/><path class="cls-1" d="M36.23,41.78a8.52,8.52,0,0,1,2.14-5.83,7.37,7.37,0,0,1,5.54-2.36,7.15,7.15,0,0,1,5.47,2.36,8.71,8.71,0,0,1,2.05,5.83,8.52,8.52,0,0,1-2.13,5.83A7.36,7.36,0,0,1,43.78,50a7.15,7.15,0,0,1-5.47-2.38A8.66,8.66,0,0,1,36.23,41.78Zm2.83-.12a6.28,6.28,0,0,0,1.24,4,4.44,4.44,0,0,0,3.61,1.61,4.3,4.3,0,0,0,3.5-1.52,6,6,0,0,0,1.2-3.85,5.9,5.9,0,0,0-1.52-4.18,4.68,4.68,0,0,0-3.35-1.43,4.47,4.47,0,0,0-3.23,1.37A5.57,5.57,0,0,0,39.06,41.66Z" transform="translate(0 0)"/><path class="cls-1" d="M65.76,33.84L60.19,50H56.88L51.31,33.84h3l4.23,12.27,4.23-12.27h3Z" transform="translate(0 0)"/><path class="cls-1" d="M67.2,33.84h9.46v2.72H70v3.93h6.45V43.2H70V47h6.63v2.72H67.2V33.84Z" transform="translate(0 0)"/><path class="cls-1" d="M79.19,49.76V33.84h4.57a10.85,10.85,0,0,1,3.25.47,5.72,5.72,0,0,1,2.73,1.75,5.27,5.27,0,0,1,1.15,3.52,4.9,4.9,0,0,1-.76,2.75,5.18,5.18,0,0,1-2,1.74,8.28,8.28,0,0,0,1.7,2.3A6.85,6.85,0,0,0,92.17,48v0.13L90.91,50a4.12,4.12,0,0,1-2.34-.89,9,9,0,0,1-2-2,9.15,9.15,0,0,1-1.21-2.19,10.07,10.07,0,0,1-1.61.1H82v4.76H79.19ZM82,36.55v5.73h1.79a5.66,5.66,0,0,0,3.36-.76,2.32,2.32,0,0,0,.88-2,2.51,2.51,0,0,0-.88-2.11,5.35,5.35,0,0,0-3.36-.82H82Z" transform="translate(0 0)"/><path class="cls-1" d="M94,33.84h9.46v2.72H96.81v3.93h6.45V43.2H96.81V47h6.63v2.72H94V33.84Z" transform="translate(0 0)"/><path class="cls-1" d="M108.8,39.17V49.76H106V33.84h2.83l6.62,10.59V33.84h2.83V49.76h-2.83Z" transform="translate(0 0)"/><path class="cls-1" d="M139.61,48.14L137.67,50l-1.84-1.82A6.22,6.22,0,0,1,131.32,50a5.41,5.41,0,0,1-3.62-1.23,4.39,4.39,0,0,1-1.44-3.42,5.23,5.23,0,0,1,2.43-4.47,5.37,5.37,0,0,1-.85-1.4,5.06,5.06,0,0,1-.43-2,3.69,3.69,0,0,1,3.93-3.85,5,5,0,0,1,2.83.83,3.28,3.28,0,0,1,1.4,2.83,4.11,4.11,0,0,1-.89,2.6,5.74,5.74,0,0,1-1.91,1.55l2.69,2.71a15.8,15.8,0,0,0,1-3.53h0.1l2.27,1A14.91,14.91,0,0,1,137.43,46Zm-9.07-5.23a3.85,3.85,0,0,0-1.09.94,2.44,2.44,0,0,0-.47,1.47,2.07,2.07,0,0,0,2.36,2.11,3.26,3.26,0,0,0,2.57-1.17ZM130,37.46a3.23,3.23,0,0,0,1,2.08,4.41,4.41,0,0,0,1.24-.68,1.77,1.77,0,0,0,.72-1.4,1.17,1.17,0,0,0-.54-1.06,2.06,2.06,0,0,0-1.05-.27,1.22,1.22,0,0,0-1.11.5A1.46,1.46,0,0,0,130,37.46Z" transform="translate(0 0)"/><path class="cls-1" d="M0.42,64a8.52,8.52,0,0,1,2.14-5.83,7.37,7.37,0,0,1,5.54-2.36,7.15,7.15,0,0,1,5.47,2.36A8.71,8.71,0,0,1,15.63,64a8.52,8.52,0,0,1-2.13,5.83A7.36,7.36,0,0,1,8,72.26,7.15,7.15,0,0,1,2.5,69.88,8.66,8.66,0,0,1,.42,64Zm2.83-.12a6.28,6.28,0,0,0,1.24,4,4.44,4.44,0,0,0,3.61,1.61A4.3,4.3,0,0,0,11.61,68a6,6,0,0,0,1.2-3.85A5.9,5.9,0,0,0,11.28,60a4.68,4.68,0,0,0-3.35-1.43,4.47,4.47,0,0,0-3.23,1.37A5.57,5.57,0,0,0,3.25,63.93Z" transform="translate(0 0)"/><path class="cls-1" d="M20.75,61.44V72H17.93V56.1h2.83L27.37,66.7V56.1H30.2V72H27.37Z" transform="translate(0 0)"/><path class="cls-1" d="M32.85,72V56.1h5.28a8.66,8.66,0,0,1,6.18,2.33A7.74,7.74,0,0,1,46.59,64a8.07,8.07,0,0,1-2,5.47A8.22,8.22,0,0,1,38.26,72H32.85Zm2.83-13.2v10.5h2.11a5.87,5.87,0,0,0,4.61-1.78A5.28,5.28,0,0,0,43.65,64a5,5,0,0,0-1.52-3.61,6.43,6.43,0,0,0-4.55-1.62h-1.9Z" transform="translate(0 0)"/><path class="cls-1" d="M48.89,56.1h9.46v2.72H51.71v3.93h6.45v2.72H51.71V69.3h6.63V72H48.89V56.1Z" transform="translate(0 0)"/><path class="cls-1" d="M60.88,72V56.1h4.57a10.85,10.85,0,0,1,3.25.47,5.72,5.72,0,0,1,2.73,1.75,5.27,5.27,0,0,1,1.15,3.52,4.9,4.9,0,0,1-.76,2.75,5.18,5.18,0,0,1-2,1.74,8.28,8.28,0,0,0,1.7,2.3,6.85,6.85,0,0,0,2.31,1.62v0.13L72.6,72.26a4.12,4.12,0,0,1-2.34-.89,9,9,0,0,1-2-2,9.15,9.15,0,0,1-1.21-2.19,10.07,10.07,0,0,1-1.61.1H63.71V72H60.88Zm2.83-13.2v5.73H65.5a5.66,5.66,0,0,0,3.36-.76,2.32,2.32,0,0,0,.88-2,2.51,2.51,0,0,0-.88-2.11,5.35,5.35,0,0,0-3.36-.82H63.71Z" transform="translate(0 0)"/><path class="cls-1" d="M78.5,61.44V72H75.67V56.1H78.5L85.12,66.7V56.1h2.83V72H85.12Z" transform="translate(0 0)"/><path class="cls-1" d="M90.59,56.1H100v2.72H93.42v3.93h6.45v2.72H93.42V69.3H100V72H90.59V56.1Z" transform="translate(0 0)"/><path class="cls-1" d="M116.06,72h-2.83V62.15L110.67,67H108l-2.57-4.83V72h-2.83V56.1h2.83l3.91,7.38,3.91-7.38h2.83V72Z" transform="translate(0 0)"/><path class="cls-1" d="M118.71,56.1h9.46v2.72h-6.63v3.93H128v2.72h-6.45V69.3h6.63V72h-9.46V56.1Z" transform="translate(0 0)"/><path class="cls-1" d="M133.53,61.44V72h-2.83V56.1h2.83l6.62,10.59V56.1H143V72h-2.83Z" transform="translate(0 0)"/></svg>